%TF.GenerationSoftware,KiCad,Pcbnew,(6.0.11)*%
%TF.CreationDate,2024-01-03T21:36:32+00:00*%
%TF.ProjectId,BBCB-SWRAM-32,42424342-2d53-4575-9241-4d2d33322e6b,rev?*%
%TF.SameCoordinates,Original*%
%TF.FileFunction,Drillmap*%
%TF.FilePolarity,Positive*%
%FSLAX45Y45*%
G04 Gerber Fmt 4.5, Leading zero omitted, Abs format (unit mm)*
G04 Created by KiCad (PCBNEW (6.0.11)) date 2024-01-03 21:36:32*
%MOMM*%
%LPD*%
G01*
G04 APERTURE LIST*
%ADD10C,0.100000*%
%ADD11C,0.200000*%
G04 APERTURE END LIST*
D10*
X15158500Y-9156000D02*
X16868500Y-9156000D01*
X16868500Y-9156000D02*
X16868500Y-5599000D01*
X16868500Y-5599000D02*
X15158500Y-5599000D01*
X15158500Y-5599000D02*
X15158500Y-9156000D01*
D11*
X15411119Y-9471476D02*
X15411119Y-9271476D01*
X15458738Y-9271476D01*
X15487309Y-9281000D01*
X15506357Y-9300048D01*
X15515881Y-9319095D01*
X15525405Y-9357190D01*
X15525405Y-9385762D01*
X15515881Y-9423857D01*
X15506357Y-9442905D01*
X15487309Y-9461952D01*
X15458738Y-9471476D01*
X15411119Y-9471476D01*
X15611119Y-9471476D02*
X15611119Y-9338143D01*
X15611119Y-9376238D02*
X15620643Y-9357190D01*
X15630167Y-9347667D01*
X15649214Y-9338143D01*
X15668262Y-9338143D01*
X15734928Y-9471476D02*
X15734928Y-9338143D01*
X15734928Y-9271476D02*
X15725405Y-9281000D01*
X15734928Y-9290524D01*
X15744452Y-9281000D01*
X15734928Y-9271476D01*
X15734928Y-9290524D01*
X15858738Y-9471476D02*
X15839690Y-9461952D01*
X15830167Y-9442905D01*
X15830167Y-9271476D01*
X15963500Y-9471476D02*
X15944452Y-9461952D01*
X15934928Y-9442905D01*
X15934928Y-9271476D01*
X16192071Y-9471476D02*
X16192071Y-9271476D01*
X16258738Y-9414333D01*
X16325405Y-9271476D01*
X16325405Y-9471476D01*
X16506357Y-9471476D02*
X16506357Y-9366714D01*
X16496833Y-9347667D01*
X16477786Y-9338143D01*
X16439690Y-9338143D01*
X16420643Y-9347667D01*
X16506357Y-9461952D02*
X16487309Y-9471476D01*
X16439690Y-9471476D01*
X16420643Y-9461952D01*
X16411119Y-9442905D01*
X16411119Y-9423857D01*
X16420643Y-9404810D01*
X16439690Y-9395286D01*
X16487309Y-9395286D01*
X16506357Y-9385762D01*
X16601595Y-9338143D02*
X16601595Y-9538143D01*
X16601595Y-9347667D02*
X16620643Y-9338143D01*
X16658738Y-9338143D01*
X16677786Y-9347667D01*
X16687309Y-9357190D01*
X16696833Y-9376238D01*
X16696833Y-9433381D01*
X16687309Y-9452429D01*
X16677786Y-9461952D01*
X16658738Y-9471476D01*
X16620643Y-9471476D01*
X16601595Y-9461952D01*
X16782548Y-9452429D02*
X16792071Y-9461952D01*
X16782548Y-9471476D01*
X16773024Y-9461952D01*
X16782548Y-9452429D01*
X16782548Y-9471476D01*
X16782548Y-9347667D02*
X16792071Y-9357190D01*
X16782548Y-9366714D01*
X16773024Y-9357190D01*
X16782548Y-9347667D01*
X16782548Y-9366714D01*
M02*
