%TF.GenerationSoftware,KiCad,Pcbnew,(6.0.11)*%
%TF.CreationDate,2024-01-03T21:36:32+00:00*%
%TF.ProjectId,BBCB-SWRAM-32,42424342-2d53-4575-9241-4d2d33322e6b,rev?*%
%TF.SameCoordinates,Original*%
%TF.FileFunction,Drillmap*%
%TF.FilePolarity,Positive*%
%FSLAX45Y45*%
G04 Gerber Fmt 4.5, Leading zero omitted, Abs format (unit mm)*
G04 Created by KiCad (PCBNEW (6.0.11)) date 2024-01-03 21:36:32*
%MOMM*%
%LPD*%
G01*
G04 APERTURE LIST*
%ADD10C,0.100000*%
%ADD11C,0.200000*%
%ADD12C,0.040000*%
%ADD13C,0.080000*%
G04 APERTURE END LIST*
D10*
X15158500Y-9156000D02*
X16868500Y-9156000D01*
X16868500Y-9156000D02*
X16868500Y-5599000D01*
X16868500Y-5599000D02*
X15158500Y-5599000D01*
X15158500Y-5599000D02*
X15158500Y-9156000D01*
D11*
D12*
X15772000Y-6659100D02*
X15812000Y-6699100D01*
X15812000Y-6659100D02*
X15772000Y-6699100D01*
X15772000Y-6786100D02*
X15812000Y-6826100D01*
X15812000Y-6786100D02*
X15772000Y-6826100D01*
X15772000Y-6913100D02*
X15812000Y-6953100D01*
X15812000Y-6913100D02*
X15772000Y-6953100D01*
X15772000Y-7040100D02*
X15812000Y-7080100D01*
X15812000Y-7040100D02*
X15772000Y-7080100D01*
X15772000Y-7675100D02*
X15812000Y-7715100D01*
X15812000Y-7675100D02*
X15772000Y-7715100D01*
X15772000Y-7802100D02*
X15812000Y-7842100D01*
X15812000Y-7802100D02*
X15772000Y-7842100D01*
X15772000Y-7929100D02*
X15812000Y-7969100D01*
X15812000Y-7929100D02*
X15772000Y-7969100D01*
X15772000Y-8056100D02*
X15812000Y-8096100D01*
X15812000Y-8056100D02*
X15772000Y-8096100D01*
X15772000Y-8183100D02*
X15812000Y-8223100D01*
X15812000Y-8183100D02*
X15772000Y-8223100D01*
X16216000Y-6532100D02*
X16256000Y-6572100D01*
X16256000Y-6532100D02*
X16216000Y-6572100D01*
X16216000Y-6786100D02*
X16256000Y-6826100D01*
X16256000Y-6786100D02*
X16216000Y-6826100D01*
X16216000Y-6913100D02*
X16256000Y-6953100D01*
X16256000Y-6913100D02*
X16216000Y-6953100D01*
X16216000Y-7040100D02*
X16256000Y-7080100D01*
X16256000Y-7040100D02*
X16216000Y-7080100D01*
X16216000Y-7675100D02*
X16256000Y-7715100D01*
X16256000Y-7675100D02*
X16216000Y-7715100D01*
X16216000Y-7802100D02*
X16256000Y-7842100D01*
X16256000Y-7802100D02*
X16216000Y-7842100D01*
X16216000Y-7929100D02*
X16256000Y-7969100D01*
X16256000Y-7929100D02*
X16216000Y-7969100D01*
X16216000Y-8056100D02*
X16256000Y-8096100D01*
X16256000Y-8056100D02*
X16216000Y-8096100D01*
X16216000Y-8183100D02*
X16256000Y-8223100D01*
X16256000Y-8183100D02*
X16216000Y-8223100D01*
D13*
X15291000Y-5727600D02*
G75*
G03*
X15291000Y-5727600I-40000J0D01*
G01*
X15291000Y-5981600D02*
G75*
G03*
X15291000Y-5981600I-40000J0D01*
G01*
X15291000Y-6235600D02*
G75*
G03*
X15291000Y-6235600I-40000J0D01*
G01*
X15291000Y-6489600D02*
G75*
G03*
X15291000Y-6489600I-40000J0D01*
G01*
X15291000Y-6743600D02*
G75*
G03*
X15291000Y-6743600I-40000J0D01*
G01*
X15291000Y-6997600D02*
G75*
G03*
X15291000Y-6997600I-40000J0D01*
G01*
X15291000Y-7251600D02*
G75*
G03*
X15291000Y-7251600I-40000J0D01*
G01*
X15291000Y-7505600D02*
G75*
G03*
X15291000Y-7505600I-40000J0D01*
G01*
X15291000Y-7759600D02*
G75*
G03*
X15291000Y-7759600I-40000J0D01*
G01*
X15291000Y-8013600D02*
G75*
G03*
X15291000Y-8013600I-40000J0D01*
G01*
X15291000Y-8267600D02*
G75*
G03*
X15291000Y-8267600I-40000J0D01*
G01*
X15291000Y-8521600D02*
G75*
G03*
X15291000Y-8521600I-40000J0D01*
G01*
X15291000Y-8775600D02*
G75*
G03*
X15291000Y-8775600I-40000J0D01*
G01*
X15291000Y-9029600D02*
G75*
G03*
X15291000Y-9029600I-40000J0D01*
G01*
X16815000Y-5727600D02*
G75*
G03*
X16815000Y-5727600I-40000J0D01*
G01*
X16815000Y-5981600D02*
G75*
G03*
X16815000Y-5981600I-40000J0D01*
G01*
X16815000Y-6235600D02*
G75*
G03*
X16815000Y-6235600I-40000J0D01*
G01*
X16815000Y-6489600D02*
G75*
G03*
X16815000Y-6489600I-40000J0D01*
G01*
X16815000Y-6743600D02*
G75*
G03*
X16815000Y-6743600I-40000J0D01*
G01*
X16815000Y-6997600D02*
G75*
G03*
X16815000Y-6997600I-40000J0D01*
G01*
X16815000Y-7251600D02*
G75*
G03*
X16815000Y-7251600I-40000J0D01*
G01*
X16815000Y-7505600D02*
G75*
G03*
X16815000Y-7505600I-40000J0D01*
G01*
X16815000Y-7759600D02*
G75*
G03*
X16815000Y-7759600I-40000J0D01*
G01*
X16815000Y-8013600D02*
G75*
G03*
X16815000Y-8013600I-40000J0D01*
G01*
X16815000Y-8267600D02*
G75*
G03*
X16815000Y-8267600I-40000J0D01*
G01*
X16815000Y-8521600D02*
G75*
G03*
X16815000Y-8521600I-40000J0D01*
G01*
X16815000Y-8775600D02*
G75*
G03*
X16815000Y-8775600I-40000J0D01*
G01*
X16815000Y-9029600D02*
G75*
G03*
X16815000Y-9029600I-40000J0D01*
G01*
D10*
X15761000Y-5961500D02*
X15761000Y-6061500D01*
X15711000Y-6011500D02*
X15811000Y-6011500D01*
X16015000Y-5961500D02*
X16015000Y-6061500D01*
X15965000Y-6011500D02*
X16065000Y-6011500D01*
X16269000Y-5961500D02*
X16269000Y-6061500D01*
X16219000Y-6011500D02*
X16319000Y-6011500D01*
D11*
X15411119Y-9471476D02*
X15411119Y-9271476D01*
X15458738Y-9271476D01*
X15487309Y-9281000D01*
X15506357Y-9300048D01*
X15515881Y-9319095D01*
X15525405Y-9357190D01*
X15525405Y-9385762D01*
X15515881Y-9423857D01*
X15506357Y-9442905D01*
X15487309Y-9461952D01*
X15458738Y-9471476D01*
X15411119Y-9471476D01*
X15611119Y-9471476D02*
X15611119Y-9338143D01*
X15611119Y-9376238D02*
X15620643Y-9357190D01*
X15630167Y-9347667D01*
X15649214Y-9338143D01*
X15668262Y-9338143D01*
X15734928Y-9471476D02*
X15734928Y-9338143D01*
X15734928Y-9271476D02*
X15725405Y-9281000D01*
X15734928Y-9290524D01*
X15744452Y-9281000D01*
X15734928Y-9271476D01*
X15734928Y-9290524D01*
X15858738Y-9471476D02*
X15839690Y-9461952D01*
X15830167Y-9442905D01*
X15830167Y-9271476D01*
X15963500Y-9471476D02*
X15944452Y-9461952D01*
X15934928Y-9442905D01*
X15934928Y-9271476D01*
X16192071Y-9471476D02*
X16192071Y-9271476D01*
X16258738Y-9414333D01*
X16325405Y-9271476D01*
X16325405Y-9471476D01*
X16506357Y-9471476D02*
X16506357Y-9366714D01*
X16496833Y-9347667D01*
X16477786Y-9338143D01*
X16439690Y-9338143D01*
X16420643Y-9347667D01*
X16506357Y-9461952D02*
X16487309Y-9471476D01*
X16439690Y-9471476D01*
X16420643Y-9461952D01*
X16411119Y-9442905D01*
X16411119Y-9423857D01*
X16420643Y-9404810D01*
X16439690Y-9395286D01*
X16487309Y-9395286D01*
X16506357Y-9385762D01*
X16601595Y-9338143D02*
X16601595Y-9538143D01*
X16601595Y-9347667D02*
X16620643Y-9338143D01*
X16658738Y-9338143D01*
X16677786Y-9347667D01*
X16687309Y-9357190D01*
X16696833Y-9376238D01*
X16696833Y-9433381D01*
X16687309Y-9452429D01*
X16677786Y-9461952D01*
X16658738Y-9471476D01*
X16620643Y-9471476D01*
X16601595Y-9461952D01*
X16782548Y-9452429D02*
X16792071Y-9461952D01*
X16782548Y-9471476D01*
X16773024Y-9461952D01*
X16782548Y-9452429D01*
X16782548Y-9471476D01*
X16782548Y-9347667D02*
X16792071Y-9357190D01*
X16782548Y-9366714D01*
X16773024Y-9357190D01*
X16782548Y-9347667D01*
X16782548Y-9366714D01*
D12*
X15113500Y-9781000D02*
X15153500Y-9821000D01*
X15153500Y-9781000D02*
X15113500Y-9821000D01*
D11*
X15449214Y-9691476D02*
X15468262Y-9691476D01*
X15487309Y-9701000D01*
X15496833Y-9710524D01*
X15506357Y-9729571D01*
X15515881Y-9767667D01*
X15515881Y-9815286D01*
X15506357Y-9853381D01*
X15496833Y-9872429D01*
X15487309Y-9881952D01*
X15468262Y-9891476D01*
X15449214Y-9891476D01*
X15430167Y-9881952D01*
X15420643Y-9872429D01*
X15411119Y-9853381D01*
X15401595Y-9815286D01*
X15401595Y-9767667D01*
X15411119Y-9729571D01*
X15420643Y-9710524D01*
X15430167Y-9701000D01*
X15449214Y-9691476D01*
X15601595Y-9872429D02*
X15611119Y-9881952D01*
X15601595Y-9891476D01*
X15592071Y-9881952D01*
X15601595Y-9872429D01*
X15601595Y-9891476D01*
X15782548Y-9758143D02*
X15782548Y-9891476D01*
X15734928Y-9681952D02*
X15687309Y-9824810D01*
X15811119Y-9824810D01*
X15925405Y-9691476D02*
X15944452Y-9691476D01*
X15963500Y-9701000D01*
X15973024Y-9710524D01*
X15982548Y-9729571D01*
X15992071Y-9767667D01*
X15992071Y-9815286D01*
X15982548Y-9853381D01*
X15973024Y-9872429D01*
X15963500Y-9881952D01*
X15944452Y-9891476D01*
X15925405Y-9891476D01*
X15906357Y-9881952D01*
X15896833Y-9872429D01*
X15887309Y-9853381D01*
X15877786Y-9815286D01*
X15877786Y-9767667D01*
X15887309Y-9729571D01*
X15896833Y-9710524D01*
X15906357Y-9701000D01*
X15925405Y-9691476D01*
X16115881Y-9691476D02*
X16134928Y-9691476D01*
X16153976Y-9701000D01*
X16163500Y-9710524D01*
X16173024Y-9729571D01*
X16182548Y-9767667D01*
X16182548Y-9815286D01*
X16173024Y-9853381D01*
X16163500Y-9872429D01*
X16153976Y-9881952D01*
X16134928Y-9891476D01*
X16115881Y-9891476D01*
X16096833Y-9881952D01*
X16087309Y-9872429D01*
X16077786Y-9853381D01*
X16068262Y-9815286D01*
X16068262Y-9767667D01*
X16077786Y-9729571D01*
X16087309Y-9710524D01*
X16096833Y-9701000D01*
X16115881Y-9691476D01*
X16268262Y-9891476D02*
X16268262Y-9758143D01*
X16268262Y-9777190D02*
X16277786Y-9767667D01*
X16296833Y-9758143D01*
X16325405Y-9758143D01*
X16344452Y-9767667D01*
X16353976Y-9786714D01*
X16353976Y-9891476D01*
X16353976Y-9786714D02*
X16363500Y-9767667D01*
X16382548Y-9758143D01*
X16411119Y-9758143D01*
X16430167Y-9767667D01*
X16439690Y-9786714D01*
X16439690Y-9891476D01*
X16534928Y-9891476D02*
X16534928Y-9758143D01*
X16534928Y-9777190D02*
X16544452Y-9767667D01*
X16563500Y-9758143D01*
X16592071Y-9758143D01*
X16611119Y-9767667D01*
X16620643Y-9786714D01*
X16620643Y-9891476D01*
X16620643Y-9786714D02*
X16630167Y-9767667D01*
X16649214Y-9758143D01*
X16677786Y-9758143D01*
X16696833Y-9767667D01*
X16706357Y-9786714D01*
X16706357Y-9891476D01*
X17096833Y-9681952D02*
X16925405Y-9939095D01*
X17353976Y-9691476D02*
X17373024Y-9691476D01*
X17392071Y-9701000D01*
X17401595Y-9710524D01*
X17411119Y-9729571D01*
X17420643Y-9767667D01*
X17420643Y-9815286D01*
X17411119Y-9853381D01*
X17401595Y-9872429D01*
X17392071Y-9881952D01*
X17373024Y-9891476D01*
X17353976Y-9891476D01*
X17334929Y-9881952D01*
X17325405Y-9872429D01*
X17315881Y-9853381D01*
X17306357Y-9815286D01*
X17306357Y-9767667D01*
X17315881Y-9729571D01*
X17325405Y-9710524D01*
X17334929Y-9701000D01*
X17353976Y-9691476D01*
X17506357Y-9872429D02*
X17515881Y-9881952D01*
X17506357Y-9891476D01*
X17496833Y-9881952D01*
X17506357Y-9872429D01*
X17506357Y-9891476D01*
X17639690Y-9691476D02*
X17658738Y-9691476D01*
X17677786Y-9701000D01*
X17687310Y-9710524D01*
X17696833Y-9729571D01*
X17706357Y-9767667D01*
X17706357Y-9815286D01*
X17696833Y-9853381D01*
X17687310Y-9872429D01*
X17677786Y-9881952D01*
X17658738Y-9891476D01*
X17639690Y-9891476D01*
X17620643Y-9881952D01*
X17611119Y-9872429D01*
X17601595Y-9853381D01*
X17592071Y-9815286D01*
X17592071Y-9767667D01*
X17601595Y-9729571D01*
X17611119Y-9710524D01*
X17620643Y-9701000D01*
X17639690Y-9691476D01*
X17896833Y-9891476D02*
X17782548Y-9891476D01*
X17839690Y-9891476D02*
X17839690Y-9691476D01*
X17820643Y-9720048D01*
X17801595Y-9739095D01*
X17782548Y-9748619D01*
X18077786Y-9691476D02*
X17982548Y-9691476D01*
X17973024Y-9786714D01*
X17982548Y-9777190D01*
X18001595Y-9767667D01*
X18049214Y-9767667D01*
X18068262Y-9777190D01*
X18077786Y-9786714D01*
X18087310Y-9805762D01*
X18087310Y-9853381D01*
X18077786Y-9872429D01*
X18068262Y-9881952D01*
X18049214Y-9891476D01*
X18001595Y-9891476D01*
X17982548Y-9881952D01*
X17973024Y-9872429D01*
X18153976Y-9691476D02*
X18287310Y-9691476D01*
X18201595Y-9891476D01*
X18353976Y-9691476D02*
X18353976Y-9729571D01*
X18430167Y-9691476D02*
X18430167Y-9729571D01*
X18725405Y-9967667D02*
X18715881Y-9958143D01*
X18696833Y-9929571D01*
X18687310Y-9910524D01*
X18677786Y-9881952D01*
X18668262Y-9834333D01*
X18668262Y-9796238D01*
X18677786Y-9748619D01*
X18687310Y-9720048D01*
X18696833Y-9701000D01*
X18715881Y-9672429D01*
X18725405Y-9662905D01*
X18906357Y-9891476D02*
X18792071Y-9891476D01*
X18849214Y-9891476D02*
X18849214Y-9691476D01*
X18830167Y-9720048D01*
X18811119Y-9739095D01*
X18792071Y-9748619D01*
X19020643Y-9777190D02*
X19001595Y-9767667D01*
X18992071Y-9758143D01*
X18982548Y-9739095D01*
X18982548Y-9729571D01*
X18992071Y-9710524D01*
X19001595Y-9701000D01*
X19020643Y-9691476D01*
X19058738Y-9691476D01*
X19077786Y-9701000D01*
X19087310Y-9710524D01*
X19096833Y-9729571D01*
X19096833Y-9739095D01*
X19087310Y-9758143D01*
X19077786Y-9767667D01*
X19058738Y-9777190D01*
X19020643Y-9777190D01*
X19001595Y-9786714D01*
X18992071Y-9796238D01*
X18982548Y-9815286D01*
X18982548Y-9853381D01*
X18992071Y-9872429D01*
X19001595Y-9881952D01*
X19020643Y-9891476D01*
X19058738Y-9891476D01*
X19077786Y-9881952D01*
X19087310Y-9872429D01*
X19096833Y-9853381D01*
X19096833Y-9815286D01*
X19087310Y-9796238D01*
X19077786Y-9786714D01*
X19058738Y-9777190D01*
X19334929Y-9891476D02*
X19334929Y-9691476D01*
X19420643Y-9891476D02*
X19420643Y-9786714D01*
X19411119Y-9767667D01*
X19392071Y-9758143D01*
X19363500Y-9758143D01*
X19344452Y-9767667D01*
X19334929Y-9777190D01*
X19544452Y-9891476D02*
X19525405Y-9881952D01*
X19515881Y-9872429D01*
X19506357Y-9853381D01*
X19506357Y-9796238D01*
X19515881Y-9777190D01*
X19525405Y-9767667D01*
X19544452Y-9758143D01*
X19573024Y-9758143D01*
X19592071Y-9767667D01*
X19601595Y-9777190D01*
X19611119Y-9796238D01*
X19611119Y-9853381D01*
X19601595Y-9872429D01*
X19592071Y-9881952D01*
X19573024Y-9891476D01*
X19544452Y-9891476D01*
X19725405Y-9891476D02*
X19706357Y-9881952D01*
X19696833Y-9862905D01*
X19696833Y-9691476D01*
X19877786Y-9881952D02*
X19858738Y-9891476D01*
X19820643Y-9891476D01*
X19801595Y-9881952D01*
X19792071Y-9862905D01*
X19792071Y-9786714D01*
X19801595Y-9767667D01*
X19820643Y-9758143D01*
X19858738Y-9758143D01*
X19877786Y-9767667D01*
X19887310Y-9786714D01*
X19887310Y-9805762D01*
X19792071Y-9824810D01*
X19963500Y-9881952D02*
X19982548Y-9891476D01*
X20020643Y-9891476D01*
X20039690Y-9881952D01*
X20049214Y-9862905D01*
X20049214Y-9853381D01*
X20039690Y-9834333D01*
X20020643Y-9824810D01*
X19992071Y-9824810D01*
X19973024Y-9815286D01*
X19963500Y-9796238D01*
X19963500Y-9786714D01*
X19973024Y-9767667D01*
X19992071Y-9758143D01*
X20020643Y-9758143D01*
X20039690Y-9767667D01*
X20115881Y-9967667D02*
X20125405Y-9958143D01*
X20144452Y-9929571D01*
X20153976Y-9910524D01*
X20163500Y-9881952D01*
X20173024Y-9834333D01*
X20173024Y-9796238D01*
X20163500Y-9748619D01*
X20153976Y-9720048D01*
X20144452Y-9701000D01*
X20125405Y-9672429D01*
X20115881Y-9662905D01*
D13*
X15153500Y-10065000D02*
G75*
G03*
X15153500Y-10065000I-40000J0D01*
G01*
D11*
X15449214Y-9955476D02*
X15468262Y-9955476D01*
X15487309Y-9965000D01*
X15496833Y-9974524D01*
X15506357Y-9993571D01*
X15515881Y-10031667D01*
X15515881Y-10079286D01*
X15506357Y-10117381D01*
X15496833Y-10136429D01*
X15487309Y-10145952D01*
X15468262Y-10155476D01*
X15449214Y-10155476D01*
X15430167Y-10145952D01*
X15420643Y-10136429D01*
X15411119Y-10117381D01*
X15401595Y-10079286D01*
X15401595Y-10031667D01*
X15411119Y-9993571D01*
X15420643Y-9974524D01*
X15430167Y-9965000D01*
X15449214Y-9955476D01*
X15601595Y-10136429D02*
X15611119Y-10145952D01*
X15601595Y-10155476D01*
X15592071Y-10145952D01*
X15601595Y-10136429D01*
X15601595Y-10155476D01*
X15725405Y-10041190D02*
X15706357Y-10031667D01*
X15696833Y-10022143D01*
X15687309Y-10003095D01*
X15687309Y-9993571D01*
X15696833Y-9974524D01*
X15706357Y-9965000D01*
X15725405Y-9955476D01*
X15763500Y-9955476D01*
X15782548Y-9965000D01*
X15792071Y-9974524D01*
X15801595Y-9993571D01*
X15801595Y-10003095D01*
X15792071Y-10022143D01*
X15782548Y-10031667D01*
X15763500Y-10041190D01*
X15725405Y-10041190D01*
X15706357Y-10050714D01*
X15696833Y-10060238D01*
X15687309Y-10079286D01*
X15687309Y-10117381D01*
X15696833Y-10136429D01*
X15706357Y-10145952D01*
X15725405Y-10155476D01*
X15763500Y-10155476D01*
X15782548Y-10145952D01*
X15792071Y-10136429D01*
X15801595Y-10117381D01*
X15801595Y-10079286D01*
X15792071Y-10060238D01*
X15782548Y-10050714D01*
X15763500Y-10041190D01*
X15925405Y-9955476D02*
X15944452Y-9955476D01*
X15963500Y-9965000D01*
X15973024Y-9974524D01*
X15982548Y-9993571D01*
X15992071Y-10031667D01*
X15992071Y-10079286D01*
X15982548Y-10117381D01*
X15973024Y-10136429D01*
X15963500Y-10145952D01*
X15944452Y-10155476D01*
X15925405Y-10155476D01*
X15906357Y-10145952D01*
X15896833Y-10136429D01*
X15887309Y-10117381D01*
X15877786Y-10079286D01*
X15877786Y-10031667D01*
X15887309Y-9993571D01*
X15896833Y-9974524D01*
X15906357Y-9965000D01*
X15925405Y-9955476D01*
X16115881Y-9955476D02*
X16134928Y-9955476D01*
X16153976Y-9965000D01*
X16163500Y-9974524D01*
X16173024Y-9993571D01*
X16182548Y-10031667D01*
X16182548Y-10079286D01*
X16173024Y-10117381D01*
X16163500Y-10136429D01*
X16153976Y-10145952D01*
X16134928Y-10155476D01*
X16115881Y-10155476D01*
X16096833Y-10145952D01*
X16087309Y-10136429D01*
X16077786Y-10117381D01*
X16068262Y-10079286D01*
X16068262Y-10031667D01*
X16077786Y-9993571D01*
X16087309Y-9974524D01*
X16096833Y-9965000D01*
X16115881Y-9955476D01*
X16268262Y-10155476D02*
X16268262Y-10022143D01*
X16268262Y-10041190D02*
X16277786Y-10031667D01*
X16296833Y-10022143D01*
X16325405Y-10022143D01*
X16344452Y-10031667D01*
X16353976Y-10050714D01*
X16353976Y-10155476D01*
X16353976Y-10050714D02*
X16363500Y-10031667D01*
X16382548Y-10022143D01*
X16411119Y-10022143D01*
X16430167Y-10031667D01*
X16439690Y-10050714D01*
X16439690Y-10155476D01*
X16534928Y-10155476D02*
X16534928Y-10022143D01*
X16534928Y-10041190D02*
X16544452Y-10031667D01*
X16563500Y-10022143D01*
X16592071Y-10022143D01*
X16611119Y-10031667D01*
X16620643Y-10050714D01*
X16620643Y-10155476D01*
X16620643Y-10050714D02*
X16630167Y-10031667D01*
X16649214Y-10022143D01*
X16677786Y-10022143D01*
X16696833Y-10031667D01*
X16706357Y-10050714D01*
X16706357Y-10155476D01*
X17096833Y-9945952D02*
X16925405Y-10203095D01*
X17353976Y-9955476D02*
X17373024Y-9955476D01*
X17392071Y-9965000D01*
X17401595Y-9974524D01*
X17411119Y-9993571D01*
X17420643Y-10031667D01*
X17420643Y-10079286D01*
X17411119Y-10117381D01*
X17401595Y-10136429D01*
X17392071Y-10145952D01*
X17373024Y-10155476D01*
X17353976Y-10155476D01*
X17334929Y-10145952D01*
X17325405Y-10136429D01*
X17315881Y-10117381D01*
X17306357Y-10079286D01*
X17306357Y-10031667D01*
X17315881Y-9993571D01*
X17325405Y-9974524D01*
X17334929Y-9965000D01*
X17353976Y-9955476D01*
X17506357Y-10136429D02*
X17515881Y-10145952D01*
X17506357Y-10155476D01*
X17496833Y-10145952D01*
X17506357Y-10136429D01*
X17506357Y-10155476D01*
X17639690Y-9955476D02*
X17658738Y-9955476D01*
X17677786Y-9965000D01*
X17687310Y-9974524D01*
X17696833Y-9993571D01*
X17706357Y-10031667D01*
X17706357Y-10079286D01*
X17696833Y-10117381D01*
X17687310Y-10136429D01*
X17677786Y-10145952D01*
X17658738Y-10155476D01*
X17639690Y-10155476D01*
X17620643Y-10145952D01*
X17611119Y-10136429D01*
X17601595Y-10117381D01*
X17592071Y-10079286D01*
X17592071Y-10031667D01*
X17601595Y-9993571D01*
X17611119Y-9974524D01*
X17620643Y-9965000D01*
X17639690Y-9955476D01*
X17773024Y-9955476D02*
X17896833Y-9955476D01*
X17830167Y-10031667D01*
X17858738Y-10031667D01*
X17877786Y-10041190D01*
X17887310Y-10050714D01*
X17896833Y-10069762D01*
X17896833Y-10117381D01*
X17887310Y-10136429D01*
X17877786Y-10145952D01*
X17858738Y-10155476D01*
X17801595Y-10155476D01*
X17782548Y-10145952D01*
X17773024Y-10136429D01*
X18087310Y-10155476D02*
X17973024Y-10155476D01*
X18030167Y-10155476D02*
X18030167Y-9955476D01*
X18011119Y-9984048D01*
X17992071Y-10003095D01*
X17973024Y-10012619D01*
X18268262Y-9955476D02*
X18173024Y-9955476D01*
X18163500Y-10050714D01*
X18173024Y-10041190D01*
X18192071Y-10031667D01*
X18239690Y-10031667D01*
X18258738Y-10041190D01*
X18268262Y-10050714D01*
X18277786Y-10069762D01*
X18277786Y-10117381D01*
X18268262Y-10136429D01*
X18258738Y-10145952D01*
X18239690Y-10155476D01*
X18192071Y-10155476D01*
X18173024Y-10145952D01*
X18163500Y-10136429D01*
X18353976Y-9955476D02*
X18353976Y-9993571D01*
X18430167Y-9955476D02*
X18430167Y-9993571D01*
X18725405Y-10231667D02*
X18715881Y-10222143D01*
X18696833Y-10193571D01*
X18687310Y-10174524D01*
X18677786Y-10145952D01*
X18668262Y-10098333D01*
X18668262Y-10060238D01*
X18677786Y-10012619D01*
X18687310Y-9984048D01*
X18696833Y-9965000D01*
X18715881Y-9936429D01*
X18725405Y-9926905D01*
X18792071Y-9974524D02*
X18801595Y-9965000D01*
X18820643Y-9955476D01*
X18868262Y-9955476D01*
X18887310Y-9965000D01*
X18896833Y-9974524D01*
X18906357Y-9993571D01*
X18906357Y-10012619D01*
X18896833Y-10041190D01*
X18782548Y-10155476D01*
X18906357Y-10155476D01*
X19020643Y-10041190D02*
X19001595Y-10031667D01*
X18992071Y-10022143D01*
X18982548Y-10003095D01*
X18982548Y-9993571D01*
X18992071Y-9974524D01*
X19001595Y-9965000D01*
X19020643Y-9955476D01*
X19058738Y-9955476D01*
X19077786Y-9965000D01*
X19087310Y-9974524D01*
X19096833Y-9993571D01*
X19096833Y-10003095D01*
X19087310Y-10022143D01*
X19077786Y-10031667D01*
X19058738Y-10041190D01*
X19020643Y-10041190D01*
X19001595Y-10050714D01*
X18992071Y-10060238D01*
X18982548Y-10079286D01*
X18982548Y-10117381D01*
X18992071Y-10136429D01*
X19001595Y-10145952D01*
X19020643Y-10155476D01*
X19058738Y-10155476D01*
X19077786Y-10145952D01*
X19087310Y-10136429D01*
X19096833Y-10117381D01*
X19096833Y-10079286D01*
X19087310Y-10060238D01*
X19077786Y-10050714D01*
X19058738Y-10041190D01*
X19334929Y-10155476D02*
X19334929Y-9955476D01*
X19420643Y-10155476D02*
X19420643Y-10050714D01*
X19411119Y-10031667D01*
X19392071Y-10022143D01*
X19363500Y-10022143D01*
X19344452Y-10031667D01*
X19334929Y-10041190D01*
X19544452Y-10155476D02*
X19525405Y-10145952D01*
X19515881Y-10136429D01*
X19506357Y-10117381D01*
X19506357Y-10060238D01*
X19515881Y-10041190D01*
X19525405Y-10031667D01*
X19544452Y-10022143D01*
X19573024Y-10022143D01*
X19592071Y-10031667D01*
X19601595Y-10041190D01*
X19611119Y-10060238D01*
X19611119Y-10117381D01*
X19601595Y-10136429D01*
X19592071Y-10145952D01*
X19573024Y-10155476D01*
X19544452Y-10155476D01*
X19725405Y-10155476D02*
X19706357Y-10145952D01*
X19696833Y-10126905D01*
X19696833Y-9955476D01*
X19877786Y-10145952D02*
X19858738Y-10155476D01*
X19820643Y-10155476D01*
X19801595Y-10145952D01*
X19792071Y-10126905D01*
X19792071Y-10050714D01*
X19801595Y-10031667D01*
X19820643Y-10022143D01*
X19858738Y-10022143D01*
X19877786Y-10031667D01*
X19887310Y-10050714D01*
X19887310Y-10069762D01*
X19792071Y-10088810D01*
X19963500Y-10145952D02*
X19982548Y-10155476D01*
X20020643Y-10155476D01*
X20039690Y-10145952D01*
X20049214Y-10126905D01*
X20049214Y-10117381D01*
X20039690Y-10098333D01*
X20020643Y-10088810D01*
X19992071Y-10088810D01*
X19973024Y-10079286D01*
X19963500Y-10060238D01*
X19963500Y-10050714D01*
X19973024Y-10031667D01*
X19992071Y-10022143D01*
X20020643Y-10022143D01*
X20039690Y-10031667D01*
X20115881Y-10231667D02*
X20125405Y-10222143D01*
X20144452Y-10193571D01*
X20153976Y-10174524D01*
X20163500Y-10145952D01*
X20173024Y-10098333D01*
X20173024Y-10060238D01*
X20163500Y-10012619D01*
X20153976Y-9984048D01*
X20144452Y-9965000D01*
X20125405Y-9936429D01*
X20115881Y-9926905D01*
D10*
X15103500Y-10279000D02*
X15103500Y-10379000D01*
X15053500Y-10329000D02*
X15153500Y-10329000D01*
D11*
X15515881Y-10419476D02*
X15401595Y-10419476D01*
X15458738Y-10419476D02*
X15458738Y-10219476D01*
X15439690Y-10248048D01*
X15420643Y-10267095D01*
X15401595Y-10276619D01*
X15601595Y-10400429D02*
X15611119Y-10409952D01*
X15601595Y-10419476D01*
X15592071Y-10409952D01*
X15601595Y-10400429D01*
X15601595Y-10419476D01*
X15734928Y-10219476D02*
X15753976Y-10219476D01*
X15773024Y-10229000D01*
X15782548Y-10238524D01*
X15792071Y-10257571D01*
X15801595Y-10295667D01*
X15801595Y-10343286D01*
X15792071Y-10381381D01*
X15782548Y-10400429D01*
X15773024Y-10409952D01*
X15753976Y-10419476D01*
X15734928Y-10419476D01*
X15715881Y-10409952D01*
X15706357Y-10400429D01*
X15696833Y-10381381D01*
X15687309Y-10343286D01*
X15687309Y-10295667D01*
X15696833Y-10257571D01*
X15706357Y-10238524D01*
X15715881Y-10229000D01*
X15734928Y-10219476D01*
X15925405Y-10219476D02*
X15944452Y-10219476D01*
X15963500Y-10229000D01*
X15973024Y-10238524D01*
X15982548Y-10257571D01*
X15992071Y-10295667D01*
X15992071Y-10343286D01*
X15982548Y-10381381D01*
X15973024Y-10400429D01*
X15963500Y-10409952D01*
X15944452Y-10419476D01*
X15925405Y-10419476D01*
X15906357Y-10409952D01*
X15896833Y-10400429D01*
X15887309Y-10381381D01*
X15877786Y-10343286D01*
X15877786Y-10295667D01*
X15887309Y-10257571D01*
X15896833Y-10238524D01*
X15906357Y-10229000D01*
X15925405Y-10219476D01*
X16115881Y-10219476D02*
X16134928Y-10219476D01*
X16153976Y-10229000D01*
X16163500Y-10238524D01*
X16173024Y-10257571D01*
X16182548Y-10295667D01*
X16182548Y-10343286D01*
X16173024Y-10381381D01*
X16163500Y-10400429D01*
X16153976Y-10409952D01*
X16134928Y-10419476D01*
X16115881Y-10419476D01*
X16096833Y-10409952D01*
X16087309Y-10400429D01*
X16077786Y-10381381D01*
X16068262Y-10343286D01*
X16068262Y-10295667D01*
X16077786Y-10257571D01*
X16087309Y-10238524D01*
X16096833Y-10229000D01*
X16115881Y-10219476D01*
X16268262Y-10419476D02*
X16268262Y-10286143D01*
X16268262Y-10305190D02*
X16277786Y-10295667D01*
X16296833Y-10286143D01*
X16325405Y-10286143D01*
X16344452Y-10295667D01*
X16353976Y-10314714D01*
X16353976Y-10419476D01*
X16353976Y-10314714D02*
X16363500Y-10295667D01*
X16382548Y-10286143D01*
X16411119Y-10286143D01*
X16430167Y-10295667D01*
X16439690Y-10314714D01*
X16439690Y-10419476D01*
X16534928Y-10419476D02*
X16534928Y-10286143D01*
X16534928Y-10305190D02*
X16544452Y-10295667D01*
X16563500Y-10286143D01*
X16592071Y-10286143D01*
X16611119Y-10295667D01*
X16620643Y-10314714D01*
X16620643Y-10419476D01*
X16620643Y-10314714D02*
X16630167Y-10295667D01*
X16649214Y-10286143D01*
X16677786Y-10286143D01*
X16696833Y-10295667D01*
X16706357Y-10314714D01*
X16706357Y-10419476D01*
X17096833Y-10209952D02*
X16925405Y-10467095D01*
X17353976Y-10219476D02*
X17373024Y-10219476D01*
X17392071Y-10229000D01*
X17401595Y-10238524D01*
X17411119Y-10257571D01*
X17420643Y-10295667D01*
X17420643Y-10343286D01*
X17411119Y-10381381D01*
X17401595Y-10400429D01*
X17392071Y-10409952D01*
X17373024Y-10419476D01*
X17353976Y-10419476D01*
X17334929Y-10409952D01*
X17325405Y-10400429D01*
X17315881Y-10381381D01*
X17306357Y-10343286D01*
X17306357Y-10295667D01*
X17315881Y-10257571D01*
X17325405Y-10238524D01*
X17334929Y-10229000D01*
X17353976Y-10219476D01*
X17506357Y-10400429D02*
X17515881Y-10409952D01*
X17506357Y-10419476D01*
X17496833Y-10409952D01*
X17506357Y-10400429D01*
X17506357Y-10419476D01*
X17639690Y-10219476D02*
X17658738Y-10219476D01*
X17677786Y-10229000D01*
X17687310Y-10238524D01*
X17696833Y-10257571D01*
X17706357Y-10295667D01*
X17706357Y-10343286D01*
X17696833Y-10381381D01*
X17687310Y-10400429D01*
X17677786Y-10409952D01*
X17658738Y-10419476D01*
X17639690Y-10419476D01*
X17620643Y-10409952D01*
X17611119Y-10400429D01*
X17601595Y-10381381D01*
X17592071Y-10343286D01*
X17592071Y-10295667D01*
X17601595Y-10257571D01*
X17611119Y-10238524D01*
X17620643Y-10229000D01*
X17639690Y-10219476D01*
X17773024Y-10219476D02*
X17896833Y-10219476D01*
X17830167Y-10295667D01*
X17858738Y-10295667D01*
X17877786Y-10305190D01*
X17887310Y-10314714D01*
X17896833Y-10333762D01*
X17896833Y-10381381D01*
X17887310Y-10400429D01*
X17877786Y-10409952D01*
X17858738Y-10419476D01*
X17801595Y-10419476D01*
X17782548Y-10409952D01*
X17773024Y-10400429D01*
X17992071Y-10419476D02*
X18030167Y-10419476D01*
X18049214Y-10409952D01*
X18058738Y-10400429D01*
X18077786Y-10371857D01*
X18087310Y-10333762D01*
X18087310Y-10257571D01*
X18077786Y-10238524D01*
X18068262Y-10229000D01*
X18049214Y-10219476D01*
X18011119Y-10219476D01*
X17992071Y-10229000D01*
X17982548Y-10238524D01*
X17973024Y-10257571D01*
X17973024Y-10305190D01*
X17982548Y-10324238D01*
X17992071Y-10333762D01*
X18011119Y-10343286D01*
X18049214Y-10343286D01*
X18068262Y-10333762D01*
X18077786Y-10324238D01*
X18087310Y-10305190D01*
X18258738Y-10286143D02*
X18258738Y-10419476D01*
X18211119Y-10209952D02*
X18163500Y-10352810D01*
X18287310Y-10352810D01*
X18353976Y-10219476D02*
X18353976Y-10257571D01*
X18430167Y-10219476D02*
X18430167Y-10257571D01*
X18725405Y-10495667D02*
X18715881Y-10486143D01*
X18696833Y-10457571D01*
X18687310Y-10438524D01*
X18677786Y-10409952D01*
X18668262Y-10362333D01*
X18668262Y-10324238D01*
X18677786Y-10276619D01*
X18687310Y-10248048D01*
X18696833Y-10229000D01*
X18715881Y-10200429D01*
X18725405Y-10190905D01*
X18782548Y-10219476D02*
X18906357Y-10219476D01*
X18839690Y-10295667D01*
X18868262Y-10295667D01*
X18887310Y-10305190D01*
X18896833Y-10314714D01*
X18906357Y-10333762D01*
X18906357Y-10381381D01*
X18896833Y-10400429D01*
X18887310Y-10409952D01*
X18868262Y-10419476D01*
X18811119Y-10419476D01*
X18792071Y-10409952D01*
X18782548Y-10400429D01*
X19144452Y-10419476D02*
X19144452Y-10219476D01*
X19230167Y-10419476D02*
X19230167Y-10314714D01*
X19220643Y-10295667D01*
X19201595Y-10286143D01*
X19173024Y-10286143D01*
X19153976Y-10295667D01*
X19144452Y-10305190D01*
X19353976Y-10419476D02*
X19334929Y-10409952D01*
X19325405Y-10400429D01*
X19315881Y-10381381D01*
X19315881Y-10324238D01*
X19325405Y-10305190D01*
X19334929Y-10295667D01*
X19353976Y-10286143D01*
X19382548Y-10286143D01*
X19401595Y-10295667D01*
X19411119Y-10305190D01*
X19420643Y-10324238D01*
X19420643Y-10381381D01*
X19411119Y-10400429D01*
X19401595Y-10409952D01*
X19382548Y-10419476D01*
X19353976Y-10419476D01*
X19534929Y-10419476D02*
X19515881Y-10409952D01*
X19506357Y-10390905D01*
X19506357Y-10219476D01*
X19687310Y-10409952D02*
X19668262Y-10419476D01*
X19630167Y-10419476D01*
X19611119Y-10409952D01*
X19601595Y-10390905D01*
X19601595Y-10314714D01*
X19611119Y-10295667D01*
X19630167Y-10286143D01*
X19668262Y-10286143D01*
X19687310Y-10295667D01*
X19696833Y-10314714D01*
X19696833Y-10333762D01*
X19601595Y-10352810D01*
X19773024Y-10409952D02*
X19792071Y-10419476D01*
X19830167Y-10419476D01*
X19849214Y-10409952D01*
X19858738Y-10390905D01*
X19858738Y-10381381D01*
X19849214Y-10362333D01*
X19830167Y-10352810D01*
X19801595Y-10352810D01*
X19782548Y-10343286D01*
X19773024Y-10324238D01*
X19773024Y-10314714D01*
X19782548Y-10295667D01*
X19801595Y-10286143D01*
X19830167Y-10286143D01*
X19849214Y-10295667D01*
X19925405Y-10495667D02*
X19934929Y-10486143D01*
X19953976Y-10457571D01*
X19963500Y-10438524D01*
X19973024Y-10409952D01*
X19982548Y-10362333D01*
X19982548Y-10324238D01*
X19973024Y-10276619D01*
X19963500Y-10248048D01*
X19953976Y-10229000D01*
X19934929Y-10200429D01*
X19925405Y-10190905D01*
M02*
