M48
; DRILL file {KiCad (6.0.11)} date Wed Jan  3 21:36:31 2024
; FORMAT={-:-/ absolute / metric / decimal}
; #@! TF.CreationDate,2024-01-03T21:36:31+00:00
; #@! TF.GenerationSoftware,Kicad,Pcbnew,(6.0.11)
; #@! TF.FileFunction,Plated,1,2,PTH
FMAT,2
METRIC
; #@! TA.AperFunction,Plated,PTH,ViaDrill
T1C0.400
; #@! TA.AperFunction,Plated,PTH,ComponentDrill
T2C0.800
; #@! TA.AperFunction,Plated,PTH,ComponentDrill
T3C1.000
%
G90
G05
T1
X157.92Y-66.791
X157.92Y-68.061
X157.92Y-69.331
X157.92Y-70.601
X157.92Y-76.951
X157.92Y-78.221
X157.92Y-79.491
X157.92Y-80.761
X157.92Y-82.031
X162.36Y-65.521
X162.36Y-68.061
X162.36Y-69.331
X162.36Y-70.601
X162.36Y-76.951
X162.36Y-78.221
X162.36Y-79.491
X162.36Y-80.761
X162.36Y-82.031
T2
X152.51Y-57.276
X152.51Y-59.816
X152.51Y-62.356
X152.51Y-64.896
X152.51Y-67.436
X152.51Y-69.976
X152.51Y-72.516
X152.51Y-75.056
X152.51Y-77.596
X152.51Y-80.136
X152.51Y-82.676
X152.51Y-85.216
X152.51Y-87.756
X152.51Y-90.296
X167.75Y-57.276
X167.75Y-59.816
X167.75Y-62.356
X167.75Y-64.896
X167.75Y-67.436
X167.75Y-69.976
X167.75Y-72.516
X167.75Y-75.056
X167.75Y-77.596
X167.75Y-80.136
X167.75Y-82.676
X167.75Y-85.216
X167.75Y-87.756
X167.75Y-90.296
T3
X157.61Y-60.115
X160.15Y-60.115
X162.69Y-60.115
T0
M30
