%TF.GenerationSoftware,KiCad,Pcbnew,(6.0.11)*%
%TF.CreationDate,2024-01-03T21:36:34+00:00*%
%TF.ProjectId,BBCB-SWRAM-32,42424342-2d53-4575-9241-4d2d33322e6b,rev?*%
%TF.SameCoordinates,Original*%
%TF.FileFunction,Copper,L1,Top*%
%TF.FilePolarity,Positive*%
%FSLAX46Y46*%
G04 Gerber Fmt 4.6, Leading zero omitted, Abs format (unit mm)*
G04 Created by KiCad (PCBNEW (6.0.11)) date 2024-01-03 21:36:34*
%MOMM*%
%LPD*%
G01*
G04 APERTURE LIST*
%TA.AperFunction,NonConductor*%
%ADD10C,0.200000*%
%TD*%
%TA.AperFunction,SMDPad,CuDef*%
%ADD11R,2.107000X0.700000*%
%TD*%
%TA.AperFunction,ComponentPad*%
%ADD12R,1.700000X1.700000*%
%TD*%
%TA.AperFunction,ComponentPad*%
%ADD13O,1.700000X1.700000*%
%TD*%
%TA.AperFunction,ComponentPad*%
%ADD14R,1.600000X1.600000*%
%TD*%
%TA.AperFunction,ComponentPad*%
%ADD15O,1.600000X1.600000*%
%TD*%
%TA.AperFunction,ViaPad*%
%ADD16C,0.800000*%
%TD*%
%TA.AperFunction,Conductor*%
%ADD17C,0.250000*%
%TD*%
G04 APERTURE END LIST*
D10*
X155635000Y-83600000D02*
X164635000Y-83600000D01*
X164635000Y-83600000D02*
X164635000Y-89400000D01*
X164635000Y-89400000D02*
X155635000Y-89400000D01*
X155635000Y-89400000D02*
X155635000Y-83600000D01*
G36*
X155635000Y-83600000D02*
G01*
X164635000Y-83600000D01*
X164635000Y-89400000D01*
X155635000Y-89400000D01*
X155635000Y-83600000D01*
G37*
D11*
%TO.P,U2,1,A14*%
%TO.N,/A14*%
X154763000Y-65521000D03*
%TO.P,U2,2,A12*%
%TO.N,/A12*%
X154763000Y-66791000D03*
%TO.P,U2,3,A7*%
%TO.N,/A7*%
X154763000Y-68061000D03*
%TO.P,U2,4,A6*%
%TO.N,/A6*%
X154763000Y-69331000D03*
%TO.P,U2,5,A5*%
%TO.N,/A5*%
X154763000Y-70601000D03*
%TO.P,U2,6,A4*%
%TO.N,/A4*%
X154763000Y-71871000D03*
%TO.P,U2,7,A3*%
%TO.N,/A3*%
X154763000Y-73141000D03*
%TO.P,U2,8,A2*%
%TO.N,/A2*%
X154763000Y-74411000D03*
%TO.P,U2,9,A1*%
%TO.N,/A1*%
X154763000Y-75681000D03*
%TO.P,U2,10,A0*%
%TO.N,/A0*%
X154763000Y-76951000D03*
%TO.P,U2,11,DQ0*%
%TO.N,/DQ0*%
X154763000Y-78221000D03*
%TO.P,U2,12,DQ1*%
%TO.N,/DQ1*%
X154763000Y-79491000D03*
%TO.P,U2,13,DQ2*%
%TO.N,/DQ2*%
X154763000Y-80761000D03*
%TO.P,U2,14,VSS*%
%TO.N,/VSS*%
X154763000Y-82031000D03*
%TO.P,U2,15,DQ3*%
%TO.N,/DQ3*%
X165507000Y-82031000D03*
%TO.P,U2,16,DQ4*%
%TO.N,/DQ4*%
X165507000Y-80761000D03*
%TO.P,U2,17,DQ5*%
%TO.N,/DQ5*%
X165507000Y-79491000D03*
%TO.P,U2,18,DQ6*%
%TO.N,/DQ6*%
X165507000Y-78221000D03*
%TO.P,U2,19,DQ7*%
%TO.N,/DQ7*%
X165507000Y-76951000D03*
%TO.P,U2,20,CE#*%
%TO.N,/CE#*%
X165507000Y-75681000D03*
%TO.P,U2,21,A10*%
%TO.N,/A10*%
X165507000Y-74411000D03*
%TO.P,U2,22,OE#*%
%TO.N,/0E#*%
X165507000Y-73141000D03*
%TO.P,U2,23,A11*%
%TO.N,/A11*%
X165507000Y-71871000D03*
%TO.P,U2,24,A9*%
%TO.N,/A9*%
X165507000Y-70601000D03*
%TO.P,U2,25,A8*%
%TO.N,/A8*%
X165507000Y-69331000D03*
%TO.P,U2,26,A13*%
%TO.N,/A13*%
X165507000Y-68061000D03*
%TO.P,U2,27,WE#*%
%TO.N,/WE#*%
X165507000Y-66791000D03*
%TO.P,U2,28,VCC*%
%TO.N,/VCC*%
X165507000Y-65521000D03*
%TD*%
D12*
%TO.P,J1,1,Pin_1*%
%TO.N,/WE#*%
X157610000Y-60115000D03*
D13*
%TO.P,J1,2,Pin_2*%
%TO.N,/A14*%
X160150000Y-60115000D03*
%TO.P,J1,3,Pin_3*%
%TO.N,/WE#*%
X162690000Y-60115000D03*
%TD*%
D14*
%TO.P,U1,1,A14*%
%TO.N,unconnected-(U1-Pad1)*%
X152510000Y-57276000D03*
D15*
%TO.P,U1,2,A12*%
%TO.N,/A12*%
X152510000Y-59816000D03*
%TO.P,U1,3,A7*%
%TO.N,/A7*%
X152510000Y-62356000D03*
%TO.P,U1,4,A6*%
%TO.N,/A6*%
X152510000Y-64896000D03*
%TO.P,U1,5,A5*%
%TO.N,/A5*%
X152510000Y-67436000D03*
%TO.P,U1,6,A4*%
%TO.N,/A4*%
X152510000Y-69976000D03*
%TO.P,U1,7,A3*%
%TO.N,/A3*%
X152510000Y-72516000D03*
%TO.P,U1,8,A2*%
%TO.N,/A2*%
X152510000Y-75056000D03*
%TO.P,U1,9,A1*%
%TO.N,/A1*%
X152510000Y-77596000D03*
%TO.P,U1,10,A0*%
%TO.N,/A0*%
X152510000Y-80136000D03*
%TO.P,U1,11,DQ0*%
%TO.N,/DQ0*%
X152510000Y-82676000D03*
%TO.P,U1,12,DQ1*%
%TO.N,/DQ1*%
X152510000Y-85216000D03*
%TO.P,U1,13,DQ2*%
%TO.N,/DQ2*%
X152510000Y-87756000D03*
%TO.P,U1,14,VSS*%
%TO.N,/VSS*%
X152510000Y-90296000D03*
%TO.P,U1,15,DQ3*%
%TO.N,/DQ3*%
X167750000Y-90296000D03*
%TO.P,U1,16,DQ4*%
%TO.N,/DQ4*%
X167750000Y-87756000D03*
%TO.P,U1,17,DQ5*%
%TO.N,/DQ5*%
X167750000Y-85216000D03*
%TO.P,U1,18,DQ6*%
%TO.N,/DQ6*%
X167750000Y-82676000D03*
%TO.P,U1,19,DQ7*%
%TO.N,/DQ7*%
X167750000Y-80136000D03*
%TO.P,U1,20,CE#*%
%TO.N,/CE#*%
X167750000Y-77596000D03*
%TO.P,U1,21,A10*%
%TO.N,/A10*%
X167750000Y-75056000D03*
%TO.P,U1,22,OE#*%
%TO.N,/0E#*%
X167750000Y-72516000D03*
%TO.P,U1,23,A11*%
%TO.N,/A11*%
X167750000Y-69976000D03*
%TO.P,U1,24,A9*%
%TO.N,/A9*%
X167750000Y-67436000D03*
%TO.P,U1,25,A8*%
%TO.N,/A8*%
X167750000Y-64896000D03*
%TO.P,U1,26,A13*%
%TO.N,/A13*%
X167750000Y-62356000D03*
%TO.P,U1,27,WE#*%
%TO.N,unconnected-(U1-Pad27)*%
X167750000Y-59816000D03*
%TO.P,U1,28,VCC*%
%TO.N,/VCC*%
X167750000Y-57276000D03*
%TD*%
D16*
%TO.N,/A12*%
X157920000Y-66791000D03*
%TO.N,/A7*%
X157920000Y-68061000D03*
%TO.N,/A6*%
X157920000Y-69331000D03*
%TO.N,/A5*%
X157920000Y-70601000D03*
%TO.N,/A0*%
X157920000Y-76951000D03*
%TO.N,/DQ0*%
X157920000Y-78221000D03*
%TO.N,/DQ1*%
X157920000Y-79491000D03*
%TO.N,/DQ2*%
X157920000Y-80761000D03*
%TO.N,/VSS*%
X157920000Y-82031000D03*
%TO.N,/DQ3*%
X162360000Y-82031000D03*
%TO.N,/DQ4*%
X162360000Y-80761000D03*
%TO.N,/DQ5*%
X162360000Y-79491000D03*
%TO.N,/DQ6*%
X162360000Y-78221000D03*
%TO.N,/DQ7*%
X162360000Y-76951000D03*
%TO.N,/A9*%
X162360000Y-70601000D03*
%TO.N,/A8*%
X162360000Y-69331000D03*
%TO.N,/A13*%
X162360000Y-68061000D03*
%TO.N,/VCC*%
X162360000Y-65521000D03*
%TD*%
D17*
%TO.N,/A12*%
X157920000Y-66791000D02*
X154763000Y-66791000D01*
%TO.N,/A7*%
X157920000Y-68061000D02*
X154763000Y-68061000D01*
%TO.N,/A6*%
X157920000Y-69331000D02*
X154763000Y-69331000D01*
%TO.N,/A5*%
X157920000Y-70601000D02*
X154763000Y-70601000D01*
%TO.N,/A4*%
X154763000Y-71871000D02*
X154059500Y-71871000D01*
X152510000Y-70321500D02*
X152510000Y-69976000D01*
X154059500Y-71871000D02*
X152510000Y-70321500D01*
%TO.N,/A3*%
X153135000Y-73141000D02*
X152510000Y-72516000D01*
X154763000Y-73141000D02*
X153135000Y-73141000D01*
%TO.N,/A2*%
X153155000Y-74411000D02*
X154763000Y-74411000D01*
X152510000Y-75056000D02*
X153155000Y-74411000D01*
%TO.N,/A1*%
X152510000Y-77596000D02*
X152510000Y-77020000D01*
X152510000Y-77020000D02*
X153849000Y-75681000D01*
X153849000Y-75681000D02*
X154763000Y-75681000D01*
%TO.N,/A0*%
X157920000Y-76951000D02*
X154763000Y-76951000D01*
%TO.N,/DQ0*%
X157920000Y-78221000D02*
X154763000Y-78221000D01*
%TO.N,/DQ1*%
X157920000Y-79491000D02*
X154763000Y-79491000D01*
%TO.N,/DQ2*%
X157920000Y-80761000D02*
X154763000Y-80761000D01*
%TO.N,/VSS*%
X157920000Y-82031000D02*
X154763000Y-82031000D01*
%TO.N,/DQ3*%
X165507000Y-82031000D02*
X162450911Y-82031000D01*
%TO.N,/DQ4*%
X162489000Y-80761000D02*
X162379701Y-80870299D01*
X165507000Y-80761000D02*
X162489000Y-80761000D01*
%TO.N,/DQ5*%
X165507000Y-79491000D02*
X162389000Y-79491000D01*
X162389000Y-79491000D02*
X162360000Y-79520000D01*
%TO.N,/DQ6*%
X162360000Y-78221000D02*
X165507000Y-78221000D01*
%TO.N,/DQ7*%
X162360000Y-76951000D02*
X165507000Y-76951000D01*
%TO.N,/CE#*%
X167750000Y-77596000D02*
X167750000Y-77220500D01*
X167750000Y-77220500D02*
X166210500Y-75681000D01*
X166210500Y-75681000D02*
X165507000Y-75681000D01*
%TO.N,/A10*%
X167750000Y-75056000D02*
X167105000Y-74411000D01*
X167105000Y-74411000D02*
X165507000Y-74411000D01*
%TO.N,/0E#*%
X167750000Y-72516000D02*
X167125000Y-73141000D01*
X167125000Y-73141000D02*
X165507000Y-73141000D01*
%TO.N,/A11*%
X166210500Y-71871000D02*
X165507000Y-71871000D01*
X167750000Y-70331500D02*
X166210500Y-71871000D01*
X167750000Y-69976000D02*
X167750000Y-70331500D01*
%TO.N,/A9*%
X162360000Y-70601000D02*
X165507000Y-70601000D01*
%TO.N,/A8*%
X162360000Y-69331000D02*
X165507000Y-69331000D01*
%TO.N,/A13*%
X162360000Y-68061000D02*
X165507000Y-68061000D01*
%TO.N,/VCC*%
X162360000Y-65521000D02*
X165507000Y-65521000D01*
%TO.N,/WE#*%
X161600000Y-66000000D02*
X161600000Y-61205000D01*
X162391000Y-66791000D02*
X161600000Y-66000000D01*
X165507000Y-66791000D02*
X162391000Y-66791000D01*
X161600000Y-61205000D02*
X162690000Y-60115000D01*
%TO.N,/A14*%
X160150000Y-64250000D02*
X158879000Y-65521000D01*
X160150000Y-60115000D02*
X160150000Y-64250000D01*
X158879000Y-65521000D02*
X154763000Y-65521000D01*
%TD*%
M02*
