%TF.GenerationSoftware,KiCad,Pcbnew,(6.0.11)*%
%TF.CreationDate,2024-01-03T21:36:34+00:00*%
%TF.ProjectId,BBCB-SWRAM-32,42424342-2d53-4575-9241-4d2d33322e6b,rev?*%
%TF.SameCoordinates,Original*%
%TF.FileFunction,Legend,Top*%
%TF.FilePolarity,Positive*%
%FSLAX46Y46*%
G04 Gerber Fmt 4.6, Leading zero omitted, Abs format (unit mm)*
G04 Created by KiCad (PCBNEW (6.0.11)) date 2024-01-03 21:36:34*
%MOMM*%
%LPD*%
G01*
G04 APERTURE LIST*
%ADD10C,0.000000*%
%ADD11C,0.220000*%
%ADD12C,0.200000*%
G04 APERTURE END LIST*
D10*
G36*
X162444478Y-84828839D02*
G01*
X162491799Y-84831261D01*
X162539073Y-84835077D01*
X162586210Y-84840320D01*
X162633124Y-84847024D01*
X162679725Y-84855220D01*
X162725927Y-84864942D01*
X162750706Y-84870221D01*
X162775228Y-84876287D01*
X162799506Y-84883094D01*
X162823548Y-84890594D01*
X162847366Y-84898740D01*
X162870969Y-84907485D01*
X162894369Y-84916781D01*
X162917576Y-84926581D01*
X162963452Y-84947505D01*
X163008681Y-84969878D01*
X163053346Y-84993322D01*
X163097532Y-85017460D01*
X163115252Y-85028234D01*
X163132729Y-85039302D01*
X163149960Y-85050668D01*
X163166945Y-85062331D01*
X163183681Y-85074294D01*
X163200168Y-85086559D01*
X163216403Y-85099127D01*
X163232387Y-85112000D01*
X163248117Y-85125180D01*
X163263592Y-85138667D01*
X163278810Y-85152465D01*
X163293770Y-85166574D01*
X163308471Y-85180997D01*
X163322912Y-85195734D01*
X163337090Y-85210788D01*
X163351005Y-85226160D01*
X163374762Y-85249208D01*
X163397526Y-85273128D01*
X163419334Y-85297864D01*
X163440220Y-85323360D01*
X163460223Y-85349561D01*
X163479379Y-85376412D01*
X163497723Y-85403856D01*
X163515293Y-85431839D01*
X163532125Y-85460305D01*
X163548256Y-85489198D01*
X163563721Y-85518463D01*
X163578558Y-85548045D01*
X163606494Y-85607936D01*
X163632353Y-85668427D01*
X163647679Y-85712412D01*
X163661866Y-85756875D01*
X163674854Y-85801752D01*
X163686584Y-85846980D01*
X163696996Y-85892496D01*
X163706030Y-85938237D01*
X163713627Y-85984140D01*
X163719728Y-86030141D01*
X163719728Y-87033182D01*
X162332587Y-87039753D01*
X162327174Y-87036862D01*
X162322296Y-87033720D01*
X162317928Y-87030339D01*
X162314045Y-87026731D01*
X162310620Y-87022908D01*
X162307628Y-87018883D01*
X162305044Y-87014666D01*
X162302841Y-87010271D01*
X162300995Y-87005709D01*
X162299479Y-87000993D01*
X162298267Y-86996133D01*
X162297335Y-86991143D01*
X162296206Y-86980818D01*
X162295886Y-86970114D01*
X162296170Y-86959127D01*
X162296852Y-86947953D01*
X162298592Y-86925430D01*
X162299240Y-86914272D01*
X162299465Y-86903312D01*
X162299064Y-86892646D01*
X162297830Y-86882369D01*
X162298495Y-86870654D01*
X162298795Y-86858768D01*
X162298588Y-86834617D01*
X162296956Y-86785744D01*
X162296682Y-86761561D01*
X162296932Y-86749651D01*
X162297536Y-86737906D01*
X162298566Y-86726362D01*
X162300094Y-86715051D01*
X162302191Y-86704006D01*
X162304930Y-86693263D01*
X162309454Y-86689214D01*
X162314138Y-86685602D01*
X162318974Y-86682405D01*
X162323952Y-86679599D01*
X162329065Y-86677163D01*
X162334306Y-86675074D01*
X162339665Y-86673311D01*
X162345135Y-86671851D01*
X162356373Y-86669750D01*
X162367957Y-86668595D01*
X162379821Y-86668206D01*
X162391901Y-86668407D01*
X162441070Y-86671539D01*
X162453251Y-86672014D01*
X162465257Y-86672011D01*
X162477023Y-86671350D01*
X162488485Y-86669855D01*
X163349889Y-86664211D01*
X163355916Y-86339907D01*
X163355402Y-86258909D01*
X163352588Y-86177999D01*
X163346731Y-86097207D01*
X163342428Y-86056863D01*
X163337084Y-86016560D01*
X163335629Y-85998062D01*
X163333396Y-85979687D01*
X163330448Y-85961429D01*
X163326851Y-85943281D01*
X163322668Y-85925239D01*
X163317965Y-85907296D01*
X163312806Y-85889447D01*
X163307255Y-85871686D01*
X163295237Y-85836405D01*
X163282428Y-85801408D01*
X163256500Y-85732082D01*
X163243607Y-85706865D01*
X163230077Y-85682002D01*
X163215908Y-85657519D01*
X163201099Y-85633440D01*
X163185648Y-85609792D01*
X163169554Y-85586601D01*
X163152815Y-85563891D01*
X163135431Y-85541689D01*
X163117400Y-85520019D01*
X163098720Y-85498908D01*
X163079391Y-85478382D01*
X163059410Y-85458465D01*
X163038777Y-85439183D01*
X163017491Y-85420563D01*
X162995549Y-85402629D01*
X162972951Y-85385407D01*
X162959724Y-85375727D01*
X162946236Y-85366325D01*
X162932503Y-85357198D01*
X162918544Y-85348340D01*
X162890017Y-85331423D01*
X162860797Y-85315544D01*
X162831025Y-85300676D01*
X162800844Y-85286789D01*
X162770394Y-85273856D01*
X162739818Y-85261847D01*
X162661479Y-85240840D01*
X162621528Y-85231572D01*
X162581118Y-85223271D01*
X162540295Y-85216047D01*
X162499104Y-85210008D01*
X162457593Y-85205262D01*
X162415806Y-85201917D01*
X162373790Y-85200083D01*
X162331591Y-85199866D01*
X162289255Y-85201377D01*
X162246828Y-85204722D01*
X162204356Y-85210011D01*
X162161885Y-85217352D01*
X162119461Y-85226854D01*
X162077130Y-85238624D01*
X162047819Y-85245966D01*
X162018901Y-85254478D01*
X161990382Y-85264109D01*
X161962269Y-85274806D01*
X161934567Y-85286517D01*
X161907283Y-85299190D01*
X161880424Y-85312773D01*
X161853994Y-85327214D01*
X161828002Y-85342461D01*
X161802452Y-85358462D01*
X161777351Y-85375164D01*
X161752705Y-85392517D01*
X161728521Y-85410467D01*
X161704804Y-85428963D01*
X161681561Y-85447953D01*
X161658799Y-85467385D01*
X161630305Y-85496680D01*
X161602431Y-85526440D01*
X161575391Y-85556829D01*
X161562251Y-85572310D01*
X161549401Y-85588008D01*
X161536866Y-85603945D01*
X161524675Y-85620140D01*
X161512854Y-85636613D01*
X161501429Y-85653385D01*
X161490428Y-85670476D01*
X161479878Y-85687906D01*
X161469805Y-85705696D01*
X161460237Y-85723866D01*
X161448820Y-85747140D01*
X161438112Y-85770746D01*
X161428095Y-85794661D01*
X161418752Y-85818860D01*
X161410064Y-85843320D01*
X161402015Y-85868016D01*
X161394585Y-85892926D01*
X161387759Y-85918024D01*
X161381517Y-85943288D01*
X161375842Y-85968693D01*
X161366123Y-86019832D01*
X161358459Y-86071250D01*
X161352709Y-86122756D01*
X161359127Y-87591225D01*
X161360430Y-87890308D01*
X161360523Y-87911112D01*
X164455000Y-87924351D01*
X164455000Y-89288671D01*
X155815000Y-89288671D01*
X155815000Y-87829288D01*
X157112099Y-87813660D01*
X157113712Y-87554730D01*
X157117898Y-86888041D01*
X157123696Y-85962394D01*
X157145741Y-85886429D01*
X157167755Y-85810435D01*
X157187351Y-85771895D01*
X157206916Y-85733353D01*
X157251285Y-85678721D01*
X157259697Y-85668128D01*
X157267965Y-85657532D01*
X157276299Y-85647115D01*
X157280556Y-85642030D01*
X157284909Y-85637058D01*
X157289383Y-85632220D01*
X157294006Y-85627539D01*
X157298802Y-85623039D01*
X157303800Y-85618742D01*
X157309024Y-85614669D01*
X157314501Y-85610845D01*
X157320257Y-85607290D01*
X157323248Y-85605622D01*
X157326319Y-85604029D01*
X157357015Y-85583966D01*
X157404702Y-85567007D01*
X157452420Y-85550015D01*
X158614705Y-85549458D01*
X159776991Y-85548900D01*
X159784743Y-85569021D01*
X159792463Y-85589144D01*
X159792463Y-88177545D01*
X159777177Y-88192831D01*
X159761860Y-88208085D01*
X159608195Y-88207869D01*
X159454531Y-88207683D01*
X159438655Y-88197636D01*
X159422780Y-88187590D01*
X159421850Y-87868974D01*
X159421013Y-87574573D01*
X159419524Y-87055907D01*
X159416269Y-85924225D01*
X157528911Y-85924225D01*
X157523851Y-85930490D01*
X157519468Y-85936402D01*
X157515707Y-85942019D01*
X157512514Y-85947396D01*
X157509833Y-85952587D01*
X157507609Y-85957648D01*
X157505789Y-85962635D01*
X157504316Y-85967603D01*
X157503137Y-85972608D01*
X157502197Y-85977704D01*
X157501440Y-85982947D01*
X157500812Y-85988392D01*
X157498495Y-86013306D01*
X157497750Y-87082697D01*
X157497440Y-87558017D01*
X157497254Y-87847798D01*
X157497037Y-88152090D01*
X157481751Y-88167376D01*
X157466465Y-88182630D01*
X156140314Y-88173731D01*
X156140314Y-88942459D01*
X164129655Y-88942459D01*
X164129655Y-88293321D01*
X160996452Y-88286345D01*
X160992107Y-88277343D01*
X160988210Y-88268259D01*
X160981674Y-88249866D01*
X160976667Y-88231196D01*
X160973016Y-88212281D01*
X160970544Y-88193153D01*
X160969076Y-88173843D01*
X160968436Y-88154384D01*
X160968450Y-88134807D01*
X160969736Y-88095425D01*
X160971529Y-88055951D01*
X160972427Y-88016640D01*
X160972102Y-87997124D01*
X160971027Y-87977744D01*
X160971461Y-87886027D01*
X160972856Y-87587907D01*
X160976375Y-86803338D01*
X160982530Y-86019041D01*
X160995425Y-85949536D01*
X161010841Y-85880555D01*
X161019534Y-85846310D01*
X161028906Y-85812256D01*
X161038972Y-85778411D01*
X161049749Y-85744797D01*
X161061253Y-85711433D01*
X161073500Y-85678338D01*
X161086506Y-85645534D01*
X161100286Y-85613038D01*
X161114858Y-85580872D01*
X161130237Y-85549054D01*
X161146439Y-85517606D01*
X161163480Y-85486547D01*
X161184533Y-85455136D01*
X161206065Y-85423816D01*
X161228122Y-85392718D01*
X161250746Y-85361973D01*
X161273983Y-85331711D01*
X161297877Y-85302063D01*
X161322471Y-85273161D01*
X161347810Y-85245135D01*
X161423065Y-85179502D01*
X161460899Y-85146969D01*
X161499324Y-85115253D01*
X161518864Y-85099849D01*
X161538680Y-85084828D01*
X161558814Y-85070246D01*
X161579309Y-85056165D01*
X161600207Y-85042642D01*
X161621550Y-85029738D01*
X161643381Y-85017510D01*
X161665744Y-85006017D01*
X161684540Y-84995067D01*
X161703584Y-84984493D01*
X161742358Y-84964463D01*
X161781948Y-84945899D01*
X161822236Y-84928774D01*
X161863102Y-84913058D01*
X161904428Y-84898723D01*
X161946096Y-84885743D01*
X161987988Y-84874087D01*
X162030949Y-84864365D01*
X162074743Y-84855711D01*
X162119280Y-84848159D01*
X162164473Y-84841739D01*
X162210233Y-84836486D01*
X162256474Y-84832431D01*
X162303107Y-84829606D01*
X162350044Y-84828044D01*
X162397197Y-84827777D01*
X162444478Y-84828839D01*
G37*
G36*
X158900642Y-86058264D02*
G01*
X158925291Y-86071440D01*
X158925291Y-88177545D01*
X158910005Y-88192800D01*
X158894688Y-88208054D01*
X158586087Y-88208054D01*
X158570801Y-88192800D01*
X158555485Y-88177545D01*
X158555485Y-86071783D01*
X158577809Y-86058852D01*
X158600133Y-86045831D01*
X158738047Y-86045458D01*
X158875992Y-86045086D01*
X158900642Y-86058264D01*
G37*
G36*
X164455000Y-87617827D02*
G01*
X163918546Y-87614387D01*
X163303690Y-87607935D01*
X162389577Y-87597917D01*
X161602833Y-87593054D01*
X161599226Y-86818949D01*
X161597751Y-86431938D01*
X161598554Y-86045211D01*
X161618132Y-85966897D01*
X161628325Y-85927897D01*
X161639583Y-85889317D01*
X161645798Y-85870257D01*
X161652502Y-85851391D01*
X161659772Y-85832747D01*
X161667680Y-85814355D01*
X161676303Y-85796245D01*
X161685714Y-85778445D01*
X161695987Y-85760986D01*
X161707199Y-85743896D01*
X161752928Y-85683899D01*
X161776189Y-85654054D01*
X161788138Y-85639435D01*
X161800382Y-85625119D01*
X161812984Y-85611180D01*
X161826008Y-85597696D01*
X161839514Y-85584740D01*
X161853567Y-85572389D01*
X161868228Y-85560719D01*
X161883560Y-85549804D01*
X161899626Y-85539720D01*
X161907954Y-85535014D01*
X161916489Y-85530543D01*
X161939325Y-85514706D01*
X161963763Y-85499714D01*
X162017035Y-85472386D01*
X162075499Y-85448791D01*
X162138343Y-85429165D01*
X162204760Y-85413741D01*
X162273941Y-85402752D01*
X162345076Y-85396434D01*
X162417357Y-85395021D01*
X162489974Y-85398745D01*
X162562120Y-85407841D01*
X162632984Y-85422544D01*
X162667683Y-85432070D01*
X162701758Y-85443086D01*
X162735109Y-85455621D01*
X162767633Y-85469703D01*
X162799231Y-85485363D01*
X162829801Y-85502628D01*
X162859241Y-85521529D01*
X162887451Y-85542095D01*
X162914330Y-85564355D01*
X162939776Y-85588339D01*
X162952797Y-85598588D01*
X162964941Y-85609595D01*
X162976274Y-85621295D01*
X162986860Y-85633621D01*
X162996766Y-85646506D01*
X163006056Y-85659884D01*
X163014798Y-85673688D01*
X163023055Y-85687852D01*
X163030895Y-85702310D01*
X163038382Y-85716995D01*
X163052562Y-85746781D01*
X163079580Y-85806155D01*
X163084922Y-85822598D01*
X163089838Y-85839096D01*
X163094327Y-85855648D01*
X163098391Y-85872255D01*
X163102029Y-85888917D01*
X163105241Y-85905633D01*
X163108028Y-85922403D01*
X163110389Y-85939228D01*
X163112325Y-85956107D01*
X163113835Y-85973041D01*
X163114920Y-85990029D01*
X163115579Y-86007071D01*
X163115814Y-86024168D01*
X163115623Y-86041318D01*
X163115007Y-86058523D01*
X163113966Y-86075782D01*
X163113360Y-86117940D01*
X163113495Y-86160284D01*
X163114546Y-86245169D01*
X163114739Y-86287528D01*
X163114229Y-86329711D01*
X163112655Y-86371627D01*
X163109656Y-86413187D01*
X163108298Y-86419108D01*
X163106608Y-86424478D01*
X163104602Y-86429322D01*
X163102295Y-86433665D01*
X163099703Y-86437532D01*
X163096840Y-86440949D01*
X163093721Y-86443940D01*
X163090362Y-86446532D01*
X163086779Y-86448749D01*
X163082985Y-86450616D01*
X163078996Y-86452159D01*
X163074828Y-86453402D01*
X163070495Y-86454372D01*
X163066013Y-86455093D01*
X163056661Y-86455891D01*
X163046894Y-86455996D01*
X163036833Y-86455610D01*
X163016312Y-86454176D01*
X163006096Y-86453531D01*
X162996069Y-86453202D01*
X162986355Y-86453393D01*
X162977074Y-86454303D01*
X162341176Y-86454303D01*
X162336182Y-86450711D01*
X162331698Y-86446908D01*
X162327700Y-86442904D01*
X162324161Y-86438711D01*
X162321057Y-86434337D01*
X162318364Y-86429793D01*
X162316056Y-86425091D01*
X162314108Y-86420239D01*
X162312496Y-86415249D01*
X162311194Y-86410130D01*
X162310177Y-86404893D01*
X162309421Y-86399549D01*
X162308590Y-86388578D01*
X162308502Y-86377301D01*
X162308957Y-86365799D01*
X162309755Y-86354155D01*
X162311583Y-86330773D01*
X162312213Y-86319199D01*
X162312388Y-86307814D01*
X162311908Y-86296700D01*
X162310573Y-86285939D01*
X162311401Y-86273373D01*
X162311722Y-86260714D01*
X162311647Y-86247981D01*
X162311291Y-86235196D01*
X162309302Y-86183952D01*
X162309228Y-86171220D01*
X162309548Y-86158560D01*
X162310376Y-86145994D01*
X162311824Y-86133542D01*
X162314006Y-86121226D01*
X162317033Y-86109067D01*
X162321018Y-86097084D01*
X162323406Y-86091166D01*
X162326076Y-86085300D01*
X162731416Y-86085300D01*
X162730459Y-86071675D01*
X162730198Y-86057838D01*
X162730448Y-86043844D01*
X162731024Y-86029751D01*
X162732411Y-86001494D01*
X162732850Y-85987444D01*
X162732874Y-85973521D01*
X162732296Y-85959783D01*
X162730930Y-85946287D01*
X162728592Y-85933088D01*
X162727001Y-85926619D01*
X162725096Y-85920245D01*
X162722856Y-85913975D01*
X162720256Y-85907815D01*
X162717275Y-85901771D01*
X162713887Y-85895852D01*
X162710072Y-85890065D01*
X162705804Y-85884416D01*
X162701061Y-85878913D01*
X162695821Y-85873562D01*
X162689636Y-85863911D01*
X162682319Y-85854603D01*
X162673931Y-85845645D01*
X162664532Y-85837046D01*
X162654186Y-85828816D01*
X162642953Y-85820962D01*
X162618074Y-85806418D01*
X162590388Y-85793484D01*
X162560389Y-85782228D01*
X162528569Y-85772719D01*
X162495422Y-85765027D01*
X162461440Y-85759219D01*
X162427117Y-85755365D01*
X162392946Y-85753535D01*
X162359418Y-85753796D01*
X162327029Y-85756217D01*
X162296270Y-85760868D01*
X162267635Y-85767817D01*
X162254268Y-85772175D01*
X162241616Y-85777133D01*
X162233385Y-85779121D01*
X162225297Y-85781385D01*
X162217349Y-85783914D01*
X162209535Y-85786698D01*
X162201853Y-85789728D01*
X162194298Y-85792993D01*
X162179555Y-85800190D01*
X162165275Y-85808207D01*
X162151425Y-85816964D01*
X162137974Y-85826381D01*
X162124892Y-85836377D01*
X162112145Y-85846872D01*
X162099704Y-85857786D01*
X162087535Y-85869037D01*
X162075609Y-85880545D01*
X162052355Y-85904013D01*
X162029691Y-85927543D01*
X162018096Y-85952665D01*
X162006158Y-85977714D01*
X161994678Y-86002864D01*
X161989358Y-86015531D01*
X161984452Y-86028288D01*
X161980060Y-86041158D01*
X161976282Y-86054161D01*
X161973216Y-86067320D01*
X161970964Y-86080657D01*
X161969624Y-86094193D01*
X161969297Y-86107949D01*
X161969545Y-86114917D01*
X161970083Y-86121949D01*
X161970925Y-86129046D01*
X161972082Y-86136212D01*
X161964858Y-87230564D01*
X164129655Y-87236921D01*
X164129655Y-84177540D01*
X156140314Y-84177540D01*
X156140314Y-87159374D01*
X156483239Y-87158413D01*
X156490494Y-86515880D01*
X156497780Y-85873344D01*
X156518771Y-85765197D01*
X156539762Y-85657047D01*
X156566799Y-85574355D01*
X156593774Y-85491631D01*
X156632253Y-85413125D01*
X156642460Y-85392387D01*
X156652785Y-85372015D01*
X156663465Y-85352063D01*
X156669012Y-85342261D01*
X156674736Y-85332583D01*
X156680668Y-85323037D01*
X156686836Y-85313630D01*
X156693271Y-85304366D01*
X156700002Y-85295254D01*
X156707059Y-85286300D01*
X156714471Y-85277511D01*
X156722268Y-85268892D01*
X156730479Y-85260452D01*
X156745877Y-85242103D01*
X156762337Y-85223815D01*
X156779797Y-85205662D01*
X156798194Y-85187717D01*
X156817466Y-85170054D01*
X156837551Y-85152747D01*
X156858388Y-85135870D01*
X156879912Y-85119497D01*
X156902064Y-85103702D01*
X156924779Y-85088558D01*
X156947996Y-85074139D01*
X156971653Y-85060519D01*
X156995688Y-85047772D01*
X157020038Y-85035972D01*
X157044641Y-85025192D01*
X157069435Y-85015506D01*
X157165895Y-84975445D01*
X157264524Y-84947789D01*
X157363154Y-84920132D01*
X158853358Y-84916039D01*
X160343592Y-84911946D01*
X160361327Y-84926613D01*
X160379063Y-84941308D01*
X160379063Y-88177545D01*
X160363777Y-88192831D01*
X160348491Y-88208085D01*
X160039859Y-88208085D01*
X160024573Y-88192831D01*
X160009256Y-88177545D01*
X160009256Y-85294434D01*
X157424608Y-85294434D01*
X157325978Y-85319610D01*
X157227348Y-85344787D01*
X157163383Y-85379514D01*
X157099418Y-85414240D01*
X157049685Y-85463849D01*
X156999951Y-85513491D01*
X156961566Y-85591657D01*
X156923181Y-85669760D01*
X156895648Y-85784296D01*
X156868145Y-85898799D01*
X156860580Y-86712302D01*
X156853325Y-87547042D01*
X156334164Y-87546605D01*
X155815000Y-87543568D01*
X155815000Y-83831330D01*
X164455000Y-83831330D01*
X164455000Y-87617827D01*
G37*
G36*
X158318661Y-86065085D02*
G01*
X158338691Y-86085084D01*
X158338691Y-88177545D01*
X158323405Y-88192800D01*
X158308088Y-88208054D01*
X158009223Y-88208054D01*
X157989038Y-88200364D01*
X157968884Y-88192615D01*
X157968884Y-86071783D01*
X157991178Y-86058852D01*
X157991178Y-86058821D01*
X158013502Y-86045831D01*
X158156067Y-86045458D01*
X158298632Y-86045086D01*
X158318661Y-86065085D01*
G37*
D11*
X162190000Y-62138571D02*
X163118571Y-62138571D01*
X162618571Y-62710000D01*
X162832857Y-62710000D01*
X162975714Y-62781428D01*
X163047142Y-62852857D01*
X163118571Y-62995714D01*
X163118571Y-63352857D01*
X163047142Y-63495714D01*
X162975714Y-63567142D01*
X162832857Y-63638571D01*
X162404285Y-63638571D01*
X162261428Y-63567142D01*
X162190000Y-63495714D01*
D12*
X159313571Y-80704571D02*
X160385000Y-80704571D01*
X160599285Y-80776000D01*
X160742142Y-80918857D01*
X160813571Y-81133142D01*
X160813571Y-81276000D01*
X160813571Y-79276000D02*
X160813571Y-79990285D01*
X159313571Y-79990285D01*
X160670714Y-77918857D02*
X160742142Y-77990285D01*
X160813571Y-78204571D01*
X160813571Y-78347428D01*
X160742142Y-78561714D01*
X160599285Y-78704571D01*
X160456428Y-78776000D01*
X160170714Y-78847428D01*
X159956428Y-78847428D01*
X159670714Y-78776000D01*
X159527857Y-78704571D01*
X159385000Y-78561714D01*
X159313571Y-78347428D01*
X159313571Y-78204571D01*
X159385000Y-77990285D01*
X159456428Y-77918857D01*
X159313571Y-76847428D02*
X160385000Y-76847428D01*
X160599285Y-76918857D01*
X160742142Y-77061714D01*
X160813571Y-77276000D01*
X160813571Y-77418857D01*
X160813571Y-75418857D02*
X160813571Y-76133142D01*
X159313571Y-76133142D01*
X160670714Y-74061714D02*
X160742142Y-74133142D01*
X160813571Y-74347428D01*
X160813571Y-74490285D01*
X160742142Y-74704571D01*
X160599285Y-74847428D01*
X160456428Y-74918857D01*
X160170714Y-74990285D01*
X159956428Y-74990285D01*
X159670714Y-74918857D01*
X159527857Y-74847428D01*
X159385000Y-74704571D01*
X159313571Y-74490285D01*
X159313571Y-74347428D01*
X159385000Y-74133142D01*
X159456428Y-74061714D01*
X159313571Y-72990285D02*
X160385000Y-72990285D01*
X160599285Y-73061714D01*
X160742142Y-73204571D01*
X160813571Y-73418857D01*
X160813571Y-73561714D01*
X160813571Y-71561714D02*
X160813571Y-72276000D01*
X159313571Y-72276000D01*
X160670714Y-70204571D02*
X160742142Y-70276000D01*
X160813571Y-70490285D01*
X160813571Y-70633142D01*
X160742142Y-70847428D01*
X160599285Y-70990285D01*
X160456428Y-71061714D01*
X160170714Y-71133142D01*
X159956428Y-71133142D01*
X159670714Y-71061714D01*
X159527857Y-70990285D01*
X159385000Y-70847428D01*
X159313571Y-70633142D01*
X159313571Y-70490285D01*
X159385000Y-70276000D01*
X159456428Y-70204571D01*
X159313571Y-69133142D02*
X160385000Y-69133142D01*
X160599285Y-69204571D01*
X160742142Y-69347428D01*
X160813571Y-69561714D01*
X160813571Y-69704571D01*
X160813571Y-67704571D02*
X160813571Y-68418857D01*
X159313571Y-68418857D01*
X160670714Y-66347428D02*
X160742142Y-66418857D01*
X160813571Y-66633142D01*
X160813571Y-66776000D01*
X160742142Y-66990285D01*
X160599285Y-67133142D01*
X160456428Y-67204571D01*
X160170714Y-67276000D01*
X159956428Y-67276000D01*
X159670714Y-67204571D01*
X159527857Y-67133142D01*
X159385000Y-66990285D01*
X159313571Y-66776000D01*
X159313571Y-66633142D01*
X159385000Y-66418857D01*
X159456428Y-66347428D01*
D11*
X159721428Y-62281428D02*
X159792857Y-62210000D01*
X159935714Y-62138571D01*
X160292857Y-62138571D01*
X160435714Y-62210000D01*
X160507142Y-62281428D01*
X160578571Y-62424285D01*
X160578571Y-62567142D01*
X160507142Y-62781428D01*
X159650000Y-63638571D01*
X160578571Y-63638571D01*
X158038571Y-63638571D02*
X157181428Y-63638571D01*
X157610000Y-63638571D02*
X157610000Y-62138571D01*
X157467142Y-62352857D01*
X157324285Y-62495714D01*
X157181428Y-62567142D01*
D12*
X155829095Y-90043619D02*
X156458047Y-90043619D01*
X156119380Y-90430666D01*
X156264523Y-90430666D01*
X156361285Y-90479047D01*
X156409666Y-90527428D01*
X156458047Y-90624190D01*
X156458047Y-90866095D01*
X156409666Y-90962857D01*
X156361285Y-91011238D01*
X156264523Y-91059619D01*
X155974238Y-91059619D01*
X155877476Y-91011238D01*
X155829095Y-90962857D01*
X156845095Y-90140380D02*
X156893476Y-90092000D01*
X156990238Y-90043619D01*
X157232142Y-90043619D01*
X157328904Y-90092000D01*
X157377285Y-90140380D01*
X157425666Y-90237142D01*
X157425666Y-90333904D01*
X157377285Y-90479047D01*
X156796714Y-91059619D01*
X157425666Y-91059619D01*
X157861095Y-91059619D02*
X157861095Y-90043619D01*
X158441666Y-91059619D02*
X158006238Y-90479047D01*
X158441666Y-90043619D02*
X157861095Y-90624190D01*
X159602809Y-91011238D02*
X159747952Y-91059619D01*
X159989857Y-91059619D01*
X160086619Y-91011238D01*
X160135000Y-90962857D01*
X160183380Y-90866095D01*
X160183380Y-90769333D01*
X160135000Y-90672571D01*
X160086619Y-90624190D01*
X159989857Y-90575809D01*
X159796333Y-90527428D01*
X159699571Y-90479047D01*
X159651190Y-90430666D01*
X159602809Y-90333904D01*
X159602809Y-90237142D01*
X159651190Y-90140380D01*
X159699571Y-90092000D01*
X159796333Y-90043619D01*
X160038238Y-90043619D01*
X160183380Y-90092000D01*
X160522047Y-90043619D02*
X160763952Y-91059619D01*
X160957476Y-90333904D01*
X161151000Y-91059619D01*
X161392904Y-90043619D01*
X162360523Y-91059619D02*
X162021857Y-90575809D01*
X161779952Y-91059619D02*
X161779952Y-90043619D01*
X162167000Y-90043619D01*
X162263761Y-90092000D01*
X162312142Y-90140380D01*
X162360523Y-90237142D01*
X162360523Y-90382285D01*
X162312142Y-90479047D01*
X162263761Y-90527428D01*
X162167000Y-90575809D01*
X161779952Y-90575809D01*
X162747571Y-90769333D02*
X163231380Y-90769333D01*
X162650809Y-91059619D02*
X162989476Y-90043619D01*
X163328142Y-91059619D01*
X163666809Y-91059619D02*
X163666809Y-90043619D01*
X164005476Y-90769333D01*
X164344142Y-90043619D01*
X164344142Y-91059619D01*
M02*
