%TF.GenerationSoftware,KiCad,Pcbnew,(6.0.11)*%
%TF.CreationDate,2024-01-03T21:36:34+00:00*%
%TF.ProjectId,BBCB-SWRAM-32,42424342-2d53-4575-9241-4d2d33322e6b,rev?*%
%TF.SameCoordinates,Original*%
%TF.FileFunction,Copper,L2,Bot*%
%TF.FilePolarity,Positive*%
%FSLAX46Y46*%
G04 Gerber Fmt 4.6, Leading zero omitted, Abs format (unit mm)*
G04 Created by KiCad (PCBNEW (6.0.11)) date 2024-01-03 21:36:34*
%MOMM*%
%LPD*%
G01*
G04 APERTURE LIST*
%TA.AperFunction,ComponentPad*%
%ADD10R,1.700000X1.700000*%
%TD*%
%TA.AperFunction,ComponentPad*%
%ADD11O,1.700000X1.700000*%
%TD*%
%TA.AperFunction,ComponentPad*%
%ADD12R,1.600000X1.600000*%
%TD*%
%TA.AperFunction,ComponentPad*%
%ADD13O,1.600000X1.600000*%
%TD*%
%TA.AperFunction,ViaPad*%
%ADD14C,0.800000*%
%TD*%
%TA.AperFunction,Conductor*%
%ADD15C,0.250000*%
%TD*%
G04 APERTURE END LIST*
D10*
%TO.P,J1,1,Pin_1*%
%TO.N,/WE#*%
X157610000Y-60115000D03*
D11*
%TO.P,J1,2,Pin_2*%
%TO.N,/A14*%
X160150000Y-60115000D03*
%TO.P,J1,3,Pin_3*%
%TO.N,/WE#*%
X162690000Y-60115000D03*
%TD*%
D12*
%TO.P,U1,1,A14*%
%TO.N,unconnected-(U1-Pad1)*%
X152510000Y-57276000D03*
D13*
%TO.P,U1,2,A12*%
%TO.N,/A12*%
X152510000Y-59816000D03*
%TO.P,U1,3,A7*%
%TO.N,/A7*%
X152510000Y-62356000D03*
%TO.P,U1,4,A6*%
%TO.N,/A6*%
X152510000Y-64896000D03*
%TO.P,U1,5,A5*%
%TO.N,/A5*%
X152510000Y-67436000D03*
%TO.P,U1,6,A4*%
%TO.N,/A4*%
X152510000Y-69976000D03*
%TO.P,U1,7,A3*%
%TO.N,/A3*%
X152510000Y-72516000D03*
%TO.P,U1,8,A2*%
%TO.N,/A2*%
X152510000Y-75056000D03*
%TO.P,U1,9,A1*%
%TO.N,/A1*%
X152510000Y-77596000D03*
%TO.P,U1,10,A0*%
%TO.N,/A0*%
X152510000Y-80136000D03*
%TO.P,U1,11,DQ0*%
%TO.N,/DQ0*%
X152510000Y-82676000D03*
%TO.P,U1,12,DQ1*%
%TO.N,/DQ1*%
X152510000Y-85216000D03*
%TO.P,U1,13,DQ2*%
%TO.N,/DQ2*%
X152510000Y-87756000D03*
%TO.P,U1,14,VSS*%
%TO.N,/VSS*%
X152510000Y-90296000D03*
%TO.P,U1,15,DQ3*%
%TO.N,/DQ3*%
X167750000Y-90296000D03*
%TO.P,U1,16,DQ4*%
%TO.N,/DQ4*%
X167750000Y-87756000D03*
%TO.P,U1,17,DQ5*%
%TO.N,/DQ5*%
X167750000Y-85216000D03*
%TO.P,U1,18,DQ6*%
%TO.N,/DQ6*%
X167750000Y-82676000D03*
%TO.P,U1,19,DQ7*%
%TO.N,/DQ7*%
X167750000Y-80136000D03*
%TO.P,U1,20,CE#*%
%TO.N,/CE#*%
X167750000Y-77596000D03*
%TO.P,U1,21,A10*%
%TO.N,/A10*%
X167750000Y-75056000D03*
%TO.P,U1,22,OE#*%
%TO.N,/0E#*%
X167750000Y-72516000D03*
%TO.P,U1,23,A11*%
%TO.N,/A11*%
X167750000Y-69976000D03*
%TO.P,U1,24,A9*%
%TO.N,/A9*%
X167750000Y-67436000D03*
%TO.P,U1,25,A8*%
%TO.N,/A8*%
X167750000Y-64896000D03*
%TO.P,U1,26,A13*%
%TO.N,/A13*%
X167750000Y-62356000D03*
%TO.P,U1,27,WE#*%
%TO.N,unconnected-(U1-Pad27)*%
X167750000Y-59816000D03*
%TO.P,U1,28,VCC*%
%TO.N,/VCC*%
X167750000Y-57276000D03*
%TD*%
D14*
%TO.N,/A12*%
X157920000Y-66791000D03*
%TO.N,/A7*%
X157920000Y-68061000D03*
%TO.N,/A6*%
X157920000Y-69331000D03*
%TO.N,/A5*%
X157920000Y-70601000D03*
%TO.N,/A0*%
X157920000Y-76951000D03*
%TO.N,/DQ0*%
X157920000Y-78221000D03*
%TO.N,/DQ1*%
X157920000Y-79491000D03*
%TO.N,/DQ2*%
X157920000Y-80761000D03*
%TO.N,/VSS*%
X157920000Y-82031000D03*
%TO.N,/DQ3*%
X162360000Y-82031000D03*
%TO.N,/DQ4*%
X162360000Y-80761000D03*
%TO.N,/DQ5*%
X162360000Y-79491000D03*
%TO.N,/DQ6*%
X162360000Y-78221000D03*
%TO.N,/DQ7*%
X162360000Y-76951000D03*
%TO.N,/A9*%
X162360000Y-70601000D03*
%TO.N,/A8*%
X162360000Y-69331000D03*
%TO.N,/A13*%
X162360000Y-68061000D03*
%TO.N,/VCC*%
X162360000Y-65521000D03*
%TD*%
D15*
%TO.N,/A12*%
X152510000Y-59816000D02*
X152806000Y-59816000D01*
X157920000Y-64930000D02*
X157920000Y-66791000D01*
X152806000Y-59816000D02*
X157920000Y-64930000D01*
%TO.N,/A7*%
X157641000Y-68061000D02*
X157920000Y-68061000D01*
X152510000Y-62356000D02*
X152510000Y-62930000D01*
X152510000Y-62930000D02*
X157641000Y-68061000D01*
%TO.N,/A6*%
X153485000Y-64896000D02*
X157920000Y-69331000D01*
X152510000Y-64896000D02*
X153485000Y-64896000D01*
%TO.N,/A5*%
X157841000Y-70601000D02*
X157920000Y-70601000D01*
X152510000Y-67436000D02*
X154676000Y-67436000D01*
X154676000Y-67436000D02*
X157841000Y-70601000D01*
%TO.N,/A0*%
X157920000Y-76951000D02*
X157920000Y-77040000D01*
X157920000Y-77040000D02*
X154880000Y-80080000D01*
X154880000Y-80080000D02*
X152566000Y-80080000D01*
X152566000Y-80080000D02*
X152510000Y-80136000D01*
%TO.N,/DQ0*%
X157920000Y-78221000D02*
X153465000Y-82676000D01*
X153465000Y-82676000D02*
X152510000Y-82676000D01*
%TO.N,/DQ1*%
X156690000Y-82990000D02*
X154464000Y-85216000D01*
X154464000Y-85216000D02*
X152510000Y-85216000D01*
X156690000Y-80721000D02*
X156690000Y-82990000D01*
X157920000Y-79491000D02*
X156690000Y-80721000D01*
%TO.N,/DQ2*%
X157190000Y-83970000D02*
X153404000Y-87756000D01*
X153404000Y-87756000D02*
X152510000Y-87756000D01*
X157920000Y-80761000D02*
X157190000Y-81491000D01*
X157190000Y-81491000D02*
X157190000Y-83970000D01*
%TO.N,/VSS*%
X157920000Y-85050000D02*
X152674000Y-90296000D01*
X152674000Y-90296000D02*
X152510000Y-90296000D01*
X157920000Y-82031000D02*
X157920000Y-85050000D01*
%TO.N,/DQ3*%
X167750000Y-90296000D02*
X167616000Y-90296000D01*
X167616000Y-90296000D02*
X162360000Y-85040000D01*
X162360000Y-85040000D02*
X162360000Y-82031000D01*
%TO.N,/DQ4*%
X163350000Y-81570000D02*
X162541000Y-80761000D01*
X167750000Y-87756000D02*
X167166000Y-87756000D01*
X167166000Y-87756000D02*
X163350000Y-83940000D01*
X162541000Y-80761000D02*
X162360000Y-80761000D01*
X163350000Y-83940000D02*
X163350000Y-81570000D01*
%TO.N,/DQ5*%
X163890000Y-81010000D02*
X162371000Y-79491000D01*
X163890000Y-82420000D02*
X163890000Y-81010000D01*
X162371000Y-79491000D02*
X162360000Y-79491000D01*
X167750000Y-85216000D02*
X166686000Y-85216000D01*
X166686000Y-85216000D02*
X163890000Y-82420000D01*
%TO.N,/DQ6*%
X167750000Y-82676000D02*
X166815000Y-82676000D01*
X166815000Y-82676000D02*
X162360000Y-78221000D01*
%TO.N,/DQ7*%
X165426000Y-80136000D02*
X162360000Y-77070000D01*
X167750000Y-80136000D02*
X165426000Y-80136000D01*
X162360000Y-77070000D02*
X162360000Y-76951000D01*
%TO.N,/A9*%
X167750000Y-67436000D02*
X165525000Y-67436000D01*
X165525000Y-67436000D02*
X162360000Y-70601000D01*
%TO.N,/A8*%
X166795000Y-64896000D02*
X162360000Y-69331000D01*
X167750000Y-64896000D02*
X166795000Y-64896000D01*
%TO.N,/A13*%
X167750000Y-62671000D02*
X162360000Y-68061000D01*
X167750000Y-62356000D02*
X167750000Y-62671000D01*
%TO.N,/VCC*%
X167750000Y-57840000D02*
X162360000Y-63230000D01*
X167750000Y-57276000D02*
X167750000Y-57840000D01*
X162360000Y-63230000D02*
X162360000Y-65521000D01*
%TO.N,/WE#*%
X157610000Y-60115000D02*
X158895000Y-61400000D01*
X161405000Y-61400000D02*
X162690000Y-60115000D01*
X158895000Y-61400000D02*
X161405000Y-61400000D01*
%TD*%
M02*
