%TF.GenerationSoftware,KiCad,Pcbnew,(6.0.11)*%
%TF.CreationDate,2024-01-03T21:36:34+00:00*%
%TF.ProjectId,BBCB-SWRAM-32,42424342-2d53-4575-9241-4d2d33322e6b,rev?*%
%TF.SameCoordinates,Original*%
%TF.FileFunction,Soldermask,Top*%
%TF.FilePolarity,Negative*%
%FSLAX46Y46*%
G04 Gerber Fmt 4.6, Leading zero omitted, Abs format (unit mm)*
G04 Created by KiCad (PCBNEW (6.0.11)) date 2024-01-03 21:36:34*
%MOMM*%
%LPD*%
G01*
G04 APERTURE LIST*
%ADD10R,2.107000X0.700000*%
%ADD11R,1.700000X1.700000*%
%ADD12O,1.700000X1.700000*%
%ADD13R,1.600000X1.600000*%
%ADD14O,1.600000X1.600000*%
G04 APERTURE END LIST*
D10*
%TO.C,U2*%
X154763000Y-65521000D03*
X154763000Y-66791000D03*
X154763000Y-68061000D03*
X154763000Y-69331000D03*
X154763000Y-70601000D03*
X154763000Y-71871000D03*
X154763000Y-73141000D03*
X154763000Y-74411000D03*
X154763000Y-75681000D03*
X154763000Y-76951000D03*
X154763000Y-78221000D03*
X154763000Y-79491000D03*
X154763000Y-80761000D03*
X154763000Y-82031000D03*
X165507000Y-82031000D03*
X165507000Y-80761000D03*
X165507000Y-79491000D03*
X165507000Y-78221000D03*
X165507000Y-76951000D03*
X165507000Y-75681000D03*
X165507000Y-74411000D03*
X165507000Y-73141000D03*
X165507000Y-71871000D03*
X165507000Y-70601000D03*
X165507000Y-69331000D03*
X165507000Y-68061000D03*
X165507000Y-66791000D03*
X165507000Y-65521000D03*
%TD*%
D11*
%TO.C,J1*%
X157610000Y-60115000D03*
D12*
X160150000Y-60115000D03*
X162690000Y-60115000D03*
%TD*%
D13*
%TO.C,U1*%
X152510000Y-57276000D03*
D14*
X152510000Y-59816000D03*
X152510000Y-62356000D03*
X152510000Y-64896000D03*
X152510000Y-67436000D03*
X152510000Y-69976000D03*
X152510000Y-72516000D03*
X152510000Y-75056000D03*
X152510000Y-77596000D03*
X152510000Y-80136000D03*
X152510000Y-82676000D03*
X152510000Y-85216000D03*
X152510000Y-87756000D03*
X152510000Y-90296000D03*
X167750000Y-90296000D03*
X167750000Y-87756000D03*
X167750000Y-85216000D03*
X167750000Y-82676000D03*
X167750000Y-80136000D03*
X167750000Y-77596000D03*
X167750000Y-75056000D03*
X167750000Y-72516000D03*
X167750000Y-69976000D03*
X167750000Y-67436000D03*
X167750000Y-64896000D03*
X167750000Y-62356000D03*
X167750000Y-59816000D03*
X167750000Y-57276000D03*
%TD*%
M02*
