M48
; DRILL file {KiCad (6.0.11)} date Wed Jan  3 21:38:47 2024
; FORMAT={-:-/ absolute / metric / decimal}
; #@! TF.CreationDate,2024-01-03T21:38:47+00:00
; #@! TF.GenerationSoftware,Kicad,Pcbnew,(6.0.11)
; #@! TF.FileFunction,Plated,1,2,PTH
FMAT,2
METRIC
; #@! TA.AperFunction,Plated,PTH,ViaDrill
T1C0.400
; #@! TA.AperFunction,Plated,PTH,ComponentDrill
T2C0.800
; #@! TA.AperFunction,Plated,PTH,ComponentDrill
T3C1.000
%
G90
G05
T1
X150.24Y-96.48
X150.93Y-77.14
X151.1Y-81.215
X151.1Y-82.485
X151.1Y-83.755
X151.1Y-85.025
X151.19Y-78.36
X153.11Y-78.31
X155.15Y-82.485
X155.15Y-83.755
X155.15Y-85.025
X155.15Y-86.295
X155.3Y-80.63
X157.255Y-76.815
X159.47Y-73.56
T2
X145.5Y-69.755
X145.5Y-72.295
X145.5Y-74.835
X145.5Y-77.375
X145.5Y-79.915
X145.5Y-82.455
X145.5Y-84.995
X145.5Y-87.535
X145.5Y-90.075
X145.5Y-92.615
X145.5Y-95.155
X145.5Y-97.695
X145.5Y-100.235
X145.5Y-102.775
X160.74Y-69.755
X160.74Y-72.295
X160.74Y-74.835
X160.74Y-77.375
X160.74Y-79.915
X160.74Y-82.455
X160.74Y-84.995
X160.74Y-87.535
X160.74Y-90.075
X160.74Y-92.615
X160.74Y-95.155
X160.74Y-97.695
X160.74Y-100.235
X160.74Y-102.775
T3
X149.325Y-72.475
X151.865Y-72.475
X154.405Y-72.475
X156.945Y-72.475
T0
M30
