%TF.GenerationSoftware,KiCad,Pcbnew,(6.0.11)*%
%TF.CreationDate,2024-01-03T21:38:48+00:00*%
%TF.ProjectId,BBCB-SWROM-32,42424342-2d53-4575-924f-4d2d33322e6b,rev?*%
%TF.SameCoordinates,Original*%
%TF.FileFunction,Drillmap*%
%TF.FilePolarity,Positive*%
%FSLAX45Y45*%
G04 Gerber Fmt 4.5, Leading zero omitted, Abs format (unit mm)*
G04 Created by KiCad (PCBNEW (6.0.11)) date 2024-01-03 21:38:48*
%MOMM*%
%LPD*%
G01*
G04 APERTURE LIST*
%ADD10C,0.100000*%
%ADD11C,0.200000*%
%ADD12C,0.040000*%
%ADD13C,0.080000*%
G04 APERTURE END LIST*
D10*
X14456000Y-10410000D02*
X16170000Y-10410000D01*
X16170000Y-10410000D02*
X16170000Y-6841000D01*
X16170000Y-6841000D02*
X14456000Y-6841000D01*
X14456000Y-6841000D02*
X14456000Y-10410000D01*
D11*
D12*
X15004000Y-9628000D02*
X15044000Y-9668000D01*
X15044000Y-9628000D02*
X15004000Y-9668000D01*
X15073000Y-7694000D02*
X15113000Y-7734000D01*
X15113000Y-7694000D02*
X15073000Y-7734000D01*
X15090000Y-8101500D02*
X15130000Y-8141500D01*
X15130000Y-8101500D02*
X15090000Y-8141500D01*
X15090000Y-8228500D02*
X15130000Y-8268500D01*
X15130000Y-8228500D02*
X15090000Y-8268500D01*
X15090000Y-8355500D02*
X15130000Y-8395500D01*
X15130000Y-8355500D02*
X15090000Y-8395500D01*
X15090000Y-8482500D02*
X15130000Y-8522500D01*
X15130000Y-8482500D02*
X15090000Y-8522500D01*
X15099000Y-7816000D02*
X15139000Y-7856000D01*
X15139000Y-7816000D02*
X15099000Y-7856000D01*
X15291000Y-7811000D02*
X15331000Y-7851000D01*
X15331000Y-7811000D02*
X15291000Y-7851000D01*
X15495000Y-8228500D02*
X15535000Y-8268500D01*
X15535000Y-8228500D02*
X15495000Y-8268500D01*
X15495000Y-8355500D02*
X15535000Y-8395500D01*
X15535000Y-8355500D02*
X15495000Y-8395500D01*
X15495000Y-8482500D02*
X15535000Y-8522500D01*
X15535000Y-8482500D02*
X15495000Y-8522500D01*
X15495000Y-8609500D02*
X15535000Y-8649500D01*
X15535000Y-8609500D02*
X15495000Y-8649500D01*
X15510000Y-8043000D02*
X15550000Y-8083000D01*
X15550000Y-8043000D02*
X15510000Y-8083000D01*
X15705500Y-7661500D02*
X15745500Y-7701500D01*
X15745500Y-7661500D02*
X15705500Y-7701500D01*
X15927000Y-7336000D02*
X15967000Y-7376000D01*
X15967000Y-7336000D02*
X15927000Y-7376000D01*
D13*
X14590000Y-6975500D02*
G75*
G03*
X14590000Y-6975500I-40000J0D01*
G01*
X14590000Y-7229500D02*
G75*
G03*
X14590000Y-7229500I-40000J0D01*
G01*
X14590000Y-7483500D02*
G75*
G03*
X14590000Y-7483500I-40000J0D01*
G01*
X14590000Y-7737500D02*
G75*
G03*
X14590000Y-7737500I-40000J0D01*
G01*
X14590000Y-7991500D02*
G75*
G03*
X14590000Y-7991500I-40000J0D01*
G01*
X14590000Y-8245500D02*
G75*
G03*
X14590000Y-8245500I-40000J0D01*
G01*
X14590000Y-8499500D02*
G75*
G03*
X14590000Y-8499500I-40000J0D01*
G01*
X14590000Y-8753500D02*
G75*
G03*
X14590000Y-8753500I-40000J0D01*
G01*
X14590000Y-9007500D02*
G75*
G03*
X14590000Y-9007500I-40000J0D01*
G01*
X14590000Y-9261500D02*
G75*
G03*
X14590000Y-9261500I-40000J0D01*
G01*
X14590000Y-9515500D02*
G75*
G03*
X14590000Y-9515500I-40000J0D01*
G01*
X14590000Y-9769500D02*
G75*
G03*
X14590000Y-9769500I-40000J0D01*
G01*
X14590000Y-10023500D02*
G75*
G03*
X14590000Y-10023500I-40000J0D01*
G01*
X14590000Y-10277500D02*
G75*
G03*
X14590000Y-10277500I-40000J0D01*
G01*
X16114000Y-6975500D02*
G75*
G03*
X16114000Y-6975500I-40000J0D01*
G01*
X16114000Y-7229500D02*
G75*
G03*
X16114000Y-7229500I-40000J0D01*
G01*
X16114000Y-7483500D02*
G75*
G03*
X16114000Y-7483500I-40000J0D01*
G01*
X16114000Y-7737500D02*
G75*
G03*
X16114000Y-7737500I-40000J0D01*
G01*
X16114000Y-7991500D02*
G75*
G03*
X16114000Y-7991500I-40000J0D01*
G01*
X16114000Y-8245500D02*
G75*
G03*
X16114000Y-8245500I-40000J0D01*
G01*
X16114000Y-8499500D02*
G75*
G03*
X16114000Y-8499500I-40000J0D01*
G01*
X16114000Y-8753500D02*
G75*
G03*
X16114000Y-8753500I-40000J0D01*
G01*
X16114000Y-9007500D02*
G75*
G03*
X16114000Y-9007500I-40000J0D01*
G01*
X16114000Y-9261500D02*
G75*
G03*
X16114000Y-9261500I-40000J0D01*
G01*
X16114000Y-9515500D02*
G75*
G03*
X16114000Y-9515500I-40000J0D01*
G01*
X16114000Y-9769500D02*
G75*
G03*
X16114000Y-9769500I-40000J0D01*
G01*
X16114000Y-10023500D02*
G75*
G03*
X16114000Y-10023500I-40000J0D01*
G01*
X16114000Y-10277500D02*
G75*
G03*
X16114000Y-10277500I-40000J0D01*
G01*
D10*
X14932500Y-7197500D02*
X14932500Y-7297500D01*
X14882500Y-7247500D02*
X14982500Y-7247500D01*
X15186500Y-7197500D02*
X15186500Y-7297500D01*
X15136500Y-7247500D02*
X15236500Y-7247500D01*
X15440500Y-7197500D02*
X15440500Y-7297500D01*
X15390500Y-7247500D02*
X15490500Y-7247500D01*
X15694500Y-7197500D02*
X15694500Y-7297500D01*
X15644500Y-7247500D02*
X15744500Y-7247500D01*
D11*
X14708619Y-10725476D02*
X14708619Y-10525476D01*
X14756238Y-10525476D01*
X14784809Y-10535000D01*
X14803857Y-10554048D01*
X14813381Y-10573095D01*
X14822905Y-10611190D01*
X14822905Y-10639762D01*
X14813381Y-10677857D01*
X14803857Y-10696905D01*
X14784809Y-10715952D01*
X14756238Y-10725476D01*
X14708619Y-10725476D01*
X14908619Y-10725476D02*
X14908619Y-10592143D01*
X14908619Y-10630238D02*
X14918143Y-10611190D01*
X14927667Y-10601667D01*
X14946714Y-10592143D01*
X14965762Y-10592143D01*
X15032428Y-10725476D02*
X15032428Y-10592143D01*
X15032428Y-10525476D02*
X15022905Y-10535000D01*
X15032428Y-10544524D01*
X15041952Y-10535000D01*
X15032428Y-10525476D01*
X15032428Y-10544524D01*
X15156238Y-10725476D02*
X15137190Y-10715952D01*
X15127667Y-10696905D01*
X15127667Y-10525476D01*
X15261000Y-10725476D02*
X15241952Y-10715952D01*
X15232428Y-10696905D01*
X15232428Y-10525476D01*
X15489571Y-10725476D02*
X15489571Y-10525476D01*
X15556238Y-10668333D01*
X15622905Y-10525476D01*
X15622905Y-10725476D01*
X15803857Y-10725476D02*
X15803857Y-10620714D01*
X15794333Y-10601667D01*
X15775286Y-10592143D01*
X15737190Y-10592143D01*
X15718143Y-10601667D01*
X15803857Y-10715952D02*
X15784809Y-10725476D01*
X15737190Y-10725476D01*
X15718143Y-10715952D01*
X15708619Y-10696905D01*
X15708619Y-10677857D01*
X15718143Y-10658810D01*
X15737190Y-10649286D01*
X15784809Y-10649286D01*
X15803857Y-10639762D01*
X15899095Y-10592143D02*
X15899095Y-10792143D01*
X15899095Y-10601667D02*
X15918143Y-10592143D01*
X15956238Y-10592143D01*
X15975286Y-10601667D01*
X15984809Y-10611190D01*
X15994333Y-10630238D01*
X15994333Y-10687381D01*
X15984809Y-10706429D01*
X15975286Y-10715952D01*
X15956238Y-10725476D01*
X15918143Y-10725476D01*
X15899095Y-10715952D01*
X16080048Y-10706429D02*
X16089571Y-10715952D01*
X16080048Y-10725476D01*
X16070524Y-10715952D01*
X16080048Y-10706429D01*
X16080048Y-10725476D01*
X16080048Y-10601667D02*
X16089571Y-10611190D01*
X16080048Y-10620714D01*
X16070524Y-10611190D01*
X16080048Y-10601667D01*
X16080048Y-10620714D01*
D12*
X14411000Y-11035000D02*
X14451000Y-11075000D01*
X14451000Y-11035000D02*
X14411000Y-11075000D01*
D11*
X14746714Y-10945476D02*
X14765762Y-10945476D01*
X14784809Y-10955000D01*
X14794333Y-10964524D01*
X14803857Y-10983571D01*
X14813381Y-11021667D01*
X14813381Y-11069286D01*
X14803857Y-11107381D01*
X14794333Y-11126429D01*
X14784809Y-11135952D01*
X14765762Y-11145476D01*
X14746714Y-11145476D01*
X14727667Y-11135952D01*
X14718143Y-11126429D01*
X14708619Y-11107381D01*
X14699095Y-11069286D01*
X14699095Y-11021667D01*
X14708619Y-10983571D01*
X14718143Y-10964524D01*
X14727667Y-10955000D01*
X14746714Y-10945476D01*
X14899095Y-11126429D02*
X14908619Y-11135952D01*
X14899095Y-11145476D01*
X14889571Y-11135952D01*
X14899095Y-11126429D01*
X14899095Y-11145476D01*
X15080048Y-11012143D02*
X15080048Y-11145476D01*
X15032428Y-10935952D02*
X14984809Y-11078810D01*
X15108619Y-11078810D01*
X15222905Y-10945476D02*
X15241952Y-10945476D01*
X15261000Y-10955000D01*
X15270524Y-10964524D01*
X15280048Y-10983571D01*
X15289571Y-11021667D01*
X15289571Y-11069286D01*
X15280048Y-11107381D01*
X15270524Y-11126429D01*
X15261000Y-11135952D01*
X15241952Y-11145476D01*
X15222905Y-11145476D01*
X15203857Y-11135952D01*
X15194333Y-11126429D01*
X15184809Y-11107381D01*
X15175286Y-11069286D01*
X15175286Y-11021667D01*
X15184809Y-10983571D01*
X15194333Y-10964524D01*
X15203857Y-10955000D01*
X15222905Y-10945476D01*
X15413381Y-10945476D02*
X15432428Y-10945476D01*
X15451476Y-10955000D01*
X15461000Y-10964524D01*
X15470524Y-10983571D01*
X15480048Y-11021667D01*
X15480048Y-11069286D01*
X15470524Y-11107381D01*
X15461000Y-11126429D01*
X15451476Y-11135952D01*
X15432428Y-11145476D01*
X15413381Y-11145476D01*
X15394333Y-11135952D01*
X15384809Y-11126429D01*
X15375286Y-11107381D01*
X15365762Y-11069286D01*
X15365762Y-11021667D01*
X15375286Y-10983571D01*
X15384809Y-10964524D01*
X15394333Y-10955000D01*
X15413381Y-10945476D01*
X15565762Y-11145476D02*
X15565762Y-11012143D01*
X15565762Y-11031190D02*
X15575286Y-11021667D01*
X15594333Y-11012143D01*
X15622905Y-11012143D01*
X15641952Y-11021667D01*
X15651476Y-11040714D01*
X15651476Y-11145476D01*
X15651476Y-11040714D02*
X15661000Y-11021667D01*
X15680048Y-11012143D01*
X15708619Y-11012143D01*
X15727667Y-11021667D01*
X15737190Y-11040714D01*
X15737190Y-11145476D01*
X15832428Y-11145476D02*
X15832428Y-11012143D01*
X15832428Y-11031190D02*
X15841952Y-11021667D01*
X15861000Y-11012143D01*
X15889571Y-11012143D01*
X15908619Y-11021667D01*
X15918143Y-11040714D01*
X15918143Y-11145476D01*
X15918143Y-11040714D02*
X15927667Y-11021667D01*
X15946714Y-11012143D01*
X15975286Y-11012143D01*
X15994333Y-11021667D01*
X16003857Y-11040714D01*
X16003857Y-11145476D01*
X16394333Y-10935952D02*
X16222905Y-11193095D01*
X16651476Y-10945476D02*
X16670524Y-10945476D01*
X16689571Y-10955000D01*
X16699095Y-10964524D01*
X16708619Y-10983571D01*
X16718143Y-11021667D01*
X16718143Y-11069286D01*
X16708619Y-11107381D01*
X16699095Y-11126429D01*
X16689571Y-11135952D01*
X16670524Y-11145476D01*
X16651476Y-11145476D01*
X16632428Y-11135952D01*
X16622905Y-11126429D01*
X16613381Y-11107381D01*
X16603857Y-11069286D01*
X16603857Y-11021667D01*
X16613381Y-10983571D01*
X16622905Y-10964524D01*
X16632428Y-10955000D01*
X16651476Y-10945476D01*
X16803857Y-11126429D02*
X16813381Y-11135952D01*
X16803857Y-11145476D01*
X16794333Y-11135952D01*
X16803857Y-11126429D01*
X16803857Y-11145476D01*
X16937190Y-10945476D02*
X16956238Y-10945476D01*
X16975286Y-10955000D01*
X16984810Y-10964524D01*
X16994333Y-10983571D01*
X17003857Y-11021667D01*
X17003857Y-11069286D01*
X16994333Y-11107381D01*
X16984810Y-11126429D01*
X16975286Y-11135952D01*
X16956238Y-11145476D01*
X16937190Y-11145476D01*
X16918143Y-11135952D01*
X16908619Y-11126429D01*
X16899095Y-11107381D01*
X16889571Y-11069286D01*
X16889571Y-11021667D01*
X16899095Y-10983571D01*
X16908619Y-10964524D01*
X16918143Y-10955000D01*
X16937190Y-10945476D01*
X17194333Y-11145476D02*
X17080048Y-11145476D01*
X17137190Y-11145476D02*
X17137190Y-10945476D01*
X17118143Y-10974048D01*
X17099095Y-10993095D01*
X17080048Y-11002619D01*
X17375286Y-10945476D02*
X17280048Y-10945476D01*
X17270524Y-11040714D01*
X17280048Y-11031190D01*
X17299095Y-11021667D01*
X17346714Y-11021667D01*
X17365762Y-11031190D01*
X17375286Y-11040714D01*
X17384810Y-11059762D01*
X17384810Y-11107381D01*
X17375286Y-11126429D01*
X17365762Y-11135952D01*
X17346714Y-11145476D01*
X17299095Y-11145476D01*
X17280048Y-11135952D01*
X17270524Y-11126429D01*
X17451476Y-10945476D02*
X17584810Y-10945476D01*
X17499095Y-11145476D01*
X17651476Y-10945476D02*
X17651476Y-10983571D01*
X17727667Y-10945476D02*
X17727667Y-10983571D01*
X18022905Y-11221667D02*
X18013381Y-11212143D01*
X17994333Y-11183571D01*
X17984810Y-11164524D01*
X17975286Y-11135952D01*
X17965762Y-11088333D01*
X17965762Y-11050238D01*
X17975286Y-11002619D01*
X17984810Y-10974048D01*
X17994333Y-10955000D01*
X18013381Y-10926429D01*
X18022905Y-10916905D01*
X18203857Y-11145476D02*
X18089571Y-11145476D01*
X18146714Y-11145476D02*
X18146714Y-10945476D01*
X18127667Y-10974048D01*
X18108619Y-10993095D01*
X18089571Y-11002619D01*
X18384810Y-10945476D02*
X18289571Y-10945476D01*
X18280048Y-11040714D01*
X18289571Y-11031190D01*
X18308619Y-11021667D01*
X18356238Y-11021667D01*
X18375286Y-11031190D01*
X18384810Y-11040714D01*
X18394333Y-11059762D01*
X18394333Y-11107381D01*
X18384810Y-11126429D01*
X18375286Y-11135952D01*
X18356238Y-11145476D01*
X18308619Y-11145476D01*
X18289571Y-11135952D01*
X18280048Y-11126429D01*
X18632429Y-11145476D02*
X18632429Y-10945476D01*
X18718143Y-11145476D02*
X18718143Y-11040714D01*
X18708619Y-11021667D01*
X18689571Y-11012143D01*
X18661000Y-11012143D01*
X18641952Y-11021667D01*
X18632429Y-11031190D01*
X18841952Y-11145476D02*
X18822905Y-11135952D01*
X18813381Y-11126429D01*
X18803857Y-11107381D01*
X18803857Y-11050238D01*
X18813381Y-11031190D01*
X18822905Y-11021667D01*
X18841952Y-11012143D01*
X18870524Y-11012143D01*
X18889571Y-11021667D01*
X18899095Y-11031190D01*
X18908619Y-11050238D01*
X18908619Y-11107381D01*
X18899095Y-11126429D01*
X18889571Y-11135952D01*
X18870524Y-11145476D01*
X18841952Y-11145476D01*
X19022905Y-11145476D02*
X19003857Y-11135952D01*
X18994333Y-11116905D01*
X18994333Y-10945476D01*
X19175286Y-11135952D02*
X19156238Y-11145476D01*
X19118143Y-11145476D01*
X19099095Y-11135952D01*
X19089571Y-11116905D01*
X19089571Y-11040714D01*
X19099095Y-11021667D01*
X19118143Y-11012143D01*
X19156238Y-11012143D01*
X19175286Y-11021667D01*
X19184810Y-11040714D01*
X19184810Y-11059762D01*
X19089571Y-11078810D01*
X19261000Y-11135952D02*
X19280048Y-11145476D01*
X19318143Y-11145476D01*
X19337190Y-11135952D01*
X19346714Y-11116905D01*
X19346714Y-11107381D01*
X19337190Y-11088333D01*
X19318143Y-11078810D01*
X19289571Y-11078810D01*
X19270524Y-11069286D01*
X19261000Y-11050238D01*
X19261000Y-11040714D01*
X19270524Y-11021667D01*
X19289571Y-11012143D01*
X19318143Y-11012143D01*
X19337190Y-11021667D01*
X19413381Y-11221667D02*
X19422905Y-11212143D01*
X19441952Y-11183571D01*
X19451476Y-11164524D01*
X19461000Y-11135952D01*
X19470524Y-11088333D01*
X19470524Y-11050238D01*
X19461000Y-11002619D01*
X19451476Y-10974048D01*
X19441952Y-10955000D01*
X19422905Y-10926429D01*
X19413381Y-10916905D01*
D13*
X14451000Y-11319000D02*
G75*
G03*
X14451000Y-11319000I-40000J0D01*
G01*
D11*
X14746714Y-11209476D02*
X14765762Y-11209476D01*
X14784809Y-11219000D01*
X14794333Y-11228524D01*
X14803857Y-11247571D01*
X14813381Y-11285667D01*
X14813381Y-11333286D01*
X14803857Y-11371381D01*
X14794333Y-11390428D01*
X14784809Y-11399952D01*
X14765762Y-11409476D01*
X14746714Y-11409476D01*
X14727667Y-11399952D01*
X14718143Y-11390428D01*
X14708619Y-11371381D01*
X14699095Y-11333286D01*
X14699095Y-11285667D01*
X14708619Y-11247571D01*
X14718143Y-11228524D01*
X14727667Y-11219000D01*
X14746714Y-11209476D01*
X14899095Y-11390428D02*
X14908619Y-11399952D01*
X14899095Y-11409476D01*
X14889571Y-11399952D01*
X14899095Y-11390428D01*
X14899095Y-11409476D01*
X15022905Y-11295190D02*
X15003857Y-11285667D01*
X14994333Y-11276143D01*
X14984809Y-11257095D01*
X14984809Y-11247571D01*
X14994333Y-11228524D01*
X15003857Y-11219000D01*
X15022905Y-11209476D01*
X15061000Y-11209476D01*
X15080048Y-11219000D01*
X15089571Y-11228524D01*
X15099095Y-11247571D01*
X15099095Y-11257095D01*
X15089571Y-11276143D01*
X15080048Y-11285667D01*
X15061000Y-11295190D01*
X15022905Y-11295190D01*
X15003857Y-11304714D01*
X14994333Y-11314238D01*
X14984809Y-11333286D01*
X14984809Y-11371381D01*
X14994333Y-11390428D01*
X15003857Y-11399952D01*
X15022905Y-11409476D01*
X15061000Y-11409476D01*
X15080048Y-11399952D01*
X15089571Y-11390428D01*
X15099095Y-11371381D01*
X15099095Y-11333286D01*
X15089571Y-11314238D01*
X15080048Y-11304714D01*
X15061000Y-11295190D01*
X15222905Y-11209476D02*
X15241952Y-11209476D01*
X15261000Y-11219000D01*
X15270524Y-11228524D01*
X15280048Y-11247571D01*
X15289571Y-11285667D01*
X15289571Y-11333286D01*
X15280048Y-11371381D01*
X15270524Y-11390428D01*
X15261000Y-11399952D01*
X15241952Y-11409476D01*
X15222905Y-11409476D01*
X15203857Y-11399952D01*
X15194333Y-11390428D01*
X15184809Y-11371381D01*
X15175286Y-11333286D01*
X15175286Y-11285667D01*
X15184809Y-11247571D01*
X15194333Y-11228524D01*
X15203857Y-11219000D01*
X15222905Y-11209476D01*
X15413381Y-11209476D02*
X15432428Y-11209476D01*
X15451476Y-11219000D01*
X15461000Y-11228524D01*
X15470524Y-11247571D01*
X15480048Y-11285667D01*
X15480048Y-11333286D01*
X15470524Y-11371381D01*
X15461000Y-11390428D01*
X15451476Y-11399952D01*
X15432428Y-11409476D01*
X15413381Y-11409476D01*
X15394333Y-11399952D01*
X15384809Y-11390428D01*
X15375286Y-11371381D01*
X15365762Y-11333286D01*
X15365762Y-11285667D01*
X15375286Y-11247571D01*
X15384809Y-11228524D01*
X15394333Y-11219000D01*
X15413381Y-11209476D01*
X15565762Y-11409476D02*
X15565762Y-11276143D01*
X15565762Y-11295190D02*
X15575286Y-11285667D01*
X15594333Y-11276143D01*
X15622905Y-11276143D01*
X15641952Y-11285667D01*
X15651476Y-11304714D01*
X15651476Y-11409476D01*
X15651476Y-11304714D02*
X15661000Y-11285667D01*
X15680048Y-11276143D01*
X15708619Y-11276143D01*
X15727667Y-11285667D01*
X15737190Y-11304714D01*
X15737190Y-11409476D01*
X15832428Y-11409476D02*
X15832428Y-11276143D01*
X15832428Y-11295190D02*
X15841952Y-11285667D01*
X15861000Y-11276143D01*
X15889571Y-11276143D01*
X15908619Y-11285667D01*
X15918143Y-11304714D01*
X15918143Y-11409476D01*
X15918143Y-11304714D02*
X15927667Y-11285667D01*
X15946714Y-11276143D01*
X15975286Y-11276143D01*
X15994333Y-11285667D01*
X16003857Y-11304714D01*
X16003857Y-11409476D01*
X16394333Y-11199952D02*
X16222905Y-11457095D01*
X16651476Y-11209476D02*
X16670524Y-11209476D01*
X16689571Y-11219000D01*
X16699095Y-11228524D01*
X16708619Y-11247571D01*
X16718143Y-11285667D01*
X16718143Y-11333286D01*
X16708619Y-11371381D01*
X16699095Y-11390428D01*
X16689571Y-11399952D01*
X16670524Y-11409476D01*
X16651476Y-11409476D01*
X16632428Y-11399952D01*
X16622905Y-11390428D01*
X16613381Y-11371381D01*
X16603857Y-11333286D01*
X16603857Y-11285667D01*
X16613381Y-11247571D01*
X16622905Y-11228524D01*
X16632428Y-11219000D01*
X16651476Y-11209476D01*
X16803857Y-11390428D02*
X16813381Y-11399952D01*
X16803857Y-11409476D01*
X16794333Y-11399952D01*
X16803857Y-11390428D01*
X16803857Y-11409476D01*
X16937190Y-11209476D02*
X16956238Y-11209476D01*
X16975286Y-11219000D01*
X16984810Y-11228524D01*
X16994333Y-11247571D01*
X17003857Y-11285667D01*
X17003857Y-11333286D01*
X16994333Y-11371381D01*
X16984810Y-11390428D01*
X16975286Y-11399952D01*
X16956238Y-11409476D01*
X16937190Y-11409476D01*
X16918143Y-11399952D01*
X16908619Y-11390428D01*
X16899095Y-11371381D01*
X16889571Y-11333286D01*
X16889571Y-11285667D01*
X16899095Y-11247571D01*
X16908619Y-11228524D01*
X16918143Y-11219000D01*
X16937190Y-11209476D01*
X17070524Y-11209476D02*
X17194333Y-11209476D01*
X17127667Y-11285667D01*
X17156238Y-11285667D01*
X17175286Y-11295190D01*
X17184810Y-11304714D01*
X17194333Y-11323762D01*
X17194333Y-11371381D01*
X17184810Y-11390428D01*
X17175286Y-11399952D01*
X17156238Y-11409476D01*
X17099095Y-11409476D01*
X17080048Y-11399952D01*
X17070524Y-11390428D01*
X17384810Y-11409476D02*
X17270524Y-11409476D01*
X17327667Y-11409476D02*
X17327667Y-11209476D01*
X17308619Y-11238048D01*
X17289571Y-11257095D01*
X17270524Y-11266619D01*
X17565762Y-11209476D02*
X17470524Y-11209476D01*
X17461000Y-11304714D01*
X17470524Y-11295190D01*
X17489571Y-11285667D01*
X17537190Y-11285667D01*
X17556238Y-11295190D01*
X17565762Y-11304714D01*
X17575286Y-11323762D01*
X17575286Y-11371381D01*
X17565762Y-11390428D01*
X17556238Y-11399952D01*
X17537190Y-11409476D01*
X17489571Y-11409476D01*
X17470524Y-11399952D01*
X17461000Y-11390428D01*
X17651476Y-11209476D02*
X17651476Y-11247571D01*
X17727667Y-11209476D02*
X17727667Y-11247571D01*
X18022905Y-11485667D02*
X18013381Y-11476143D01*
X17994333Y-11447571D01*
X17984810Y-11428524D01*
X17975286Y-11399952D01*
X17965762Y-11352333D01*
X17965762Y-11314238D01*
X17975286Y-11266619D01*
X17984810Y-11238048D01*
X17994333Y-11219000D01*
X18013381Y-11190428D01*
X18022905Y-11180905D01*
X18089571Y-11228524D02*
X18099095Y-11219000D01*
X18118143Y-11209476D01*
X18165762Y-11209476D01*
X18184810Y-11219000D01*
X18194333Y-11228524D01*
X18203857Y-11247571D01*
X18203857Y-11266619D01*
X18194333Y-11295190D01*
X18080048Y-11409476D01*
X18203857Y-11409476D01*
X18318143Y-11295190D02*
X18299095Y-11285667D01*
X18289571Y-11276143D01*
X18280048Y-11257095D01*
X18280048Y-11247571D01*
X18289571Y-11228524D01*
X18299095Y-11219000D01*
X18318143Y-11209476D01*
X18356238Y-11209476D01*
X18375286Y-11219000D01*
X18384810Y-11228524D01*
X18394333Y-11247571D01*
X18394333Y-11257095D01*
X18384810Y-11276143D01*
X18375286Y-11285667D01*
X18356238Y-11295190D01*
X18318143Y-11295190D01*
X18299095Y-11304714D01*
X18289571Y-11314238D01*
X18280048Y-11333286D01*
X18280048Y-11371381D01*
X18289571Y-11390428D01*
X18299095Y-11399952D01*
X18318143Y-11409476D01*
X18356238Y-11409476D01*
X18375286Y-11399952D01*
X18384810Y-11390428D01*
X18394333Y-11371381D01*
X18394333Y-11333286D01*
X18384810Y-11314238D01*
X18375286Y-11304714D01*
X18356238Y-11295190D01*
X18632429Y-11409476D02*
X18632429Y-11209476D01*
X18718143Y-11409476D02*
X18718143Y-11304714D01*
X18708619Y-11285667D01*
X18689571Y-11276143D01*
X18661000Y-11276143D01*
X18641952Y-11285667D01*
X18632429Y-11295190D01*
X18841952Y-11409476D02*
X18822905Y-11399952D01*
X18813381Y-11390428D01*
X18803857Y-11371381D01*
X18803857Y-11314238D01*
X18813381Y-11295190D01*
X18822905Y-11285667D01*
X18841952Y-11276143D01*
X18870524Y-11276143D01*
X18889571Y-11285667D01*
X18899095Y-11295190D01*
X18908619Y-11314238D01*
X18908619Y-11371381D01*
X18899095Y-11390428D01*
X18889571Y-11399952D01*
X18870524Y-11409476D01*
X18841952Y-11409476D01*
X19022905Y-11409476D02*
X19003857Y-11399952D01*
X18994333Y-11380905D01*
X18994333Y-11209476D01*
X19175286Y-11399952D02*
X19156238Y-11409476D01*
X19118143Y-11409476D01*
X19099095Y-11399952D01*
X19089571Y-11380905D01*
X19089571Y-11304714D01*
X19099095Y-11285667D01*
X19118143Y-11276143D01*
X19156238Y-11276143D01*
X19175286Y-11285667D01*
X19184810Y-11304714D01*
X19184810Y-11323762D01*
X19089571Y-11342809D01*
X19261000Y-11399952D02*
X19280048Y-11409476D01*
X19318143Y-11409476D01*
X19337190Y-11399952D01*
X19346714Y-11380905D01*
X19346714Y-11371381D01*
X19337190Y-11352333D01*
X19318143Y-11342809D01*
X19289571Y-11342809D01*
X19270524Y-11333286D01*
X19261000Y-11314238D01*
X19261000Y-11304714D01*
X19270524Y-11285667D01*
X19289571Y-11276143D01*
X19318143Y-11276143D01*
X19337190Y-11285667D01*
X19413381Y-11485667D02*
X19422905Y-11476143D01*
X19441952Y-11447571D01*
X19451476Y-11428524D01*
X19461000Y-11399952D01*
X19470524Y-11352333D01*
X19470524Y-11314238D01*
X19461000Y-11266619D01*
X19451476Y-11238048D01*
X19441952Y-11219000D01*
X19422905Y-11190428D01*
X19413381Y-11180905D01*
D10*
X14401000Y-11533000D02*
X14401000Y-11633000D01*
X14351000Y-11583000D02*
X14451000Y-11583000D01*
D11*
X14813381Y-11673476D02*
X14699095Y-11673476D01*
X14756238Y-11673476D02*
X14756238Y-11473476D01*
X14737190Y-11502048D01*
X14718143Y-11521095D01*
X14699095Y-11530619D01*
X14899095Y-11654428D02*
X14908619Y-11663952D01*
X14899095Y-11673476D01*
X14889571Y-11663952D01*
X14899095Y-11654428D01*
X14899095Y-11673476D01*
X15032428Y-11473476D02*
X15051476Y-11473476D01*
X15070524Y-11483000D01*
X15080048Y-11492524D01*
X15089571Y-11511571D01*
X15099095Y-11549667D01*
X15099095Y-11597286D01*
X15089571Y-11635381D01*
X15080048Y-11654428D01*
X15070524Y-11663952D01*
X15051476Y-11673476D01*
X15032428Y-11673476D01*
X15013381Y-11663952D01*
X15003857Y-11654428D01*
X14994333Y-11635381D01*
X14984809Y-11597286D01*
X14984809Y-11549667D01*
X14994333Y-11511571D01*
X15003857Y-11492524D01*
X15013381Y-11483000D01*
X15032428Y-11473476D01*
X15222905Y-11473476D02*
X15241952Y-11473476D01*
X15261000Y-11483000D01*
X15270524Y-11492524D01*
X15280048Y-11511571D01*
X15289571Y-11549667D01*
X15289571Y-11597286D01*
X15280048Y-11635381D01*
X15270524Y-11654428D01*
X15261000Y-11663952D01*
X15241952Y-11673476D01*
X15222905Y-11673476D01*
X15203857Y-11663952D01*
X15194333Y-11654428D01*
X15184809Y-11635381D01*
X15175286Y-11597286D01*
X15175286Y-11549667D01*
X15184809Y-11511571D01*
X15194333Y-11492524D01*
X15203857Y-11483000D01*
X15222905Y-11473476D01*
X15413381Y-11473476D02*
X15432428Y-11473476D01*
X15451476Y-11483000D01*
X15461000Y-11492524D01*
X15470524Y-11511571D01*
X15480048Y-11549667D01*
X15480048Y-11597286D01*
X15470524Y-11635381D01*
X15461000Y-11654428D01*
X15451476Y-11663952D01*
X15432428Y-11673476D01*
X15413381Y-11673476D01*
X15394333Y-11663952D01*
X15384809Y-11654428D01*
X15375286Y-11635381D01*
X15365762Y-11597286D01*
X15365762Y-11549667D01*
X15375286Y-11511571D01*
X15384809Y-11492524D01*
X15394333Y-11483000D01*
X15413381Y-11473476D01*
X15565762Y-11673476D02*
X15565762Y-11540143D01*
X15565762Y-11559190D02*
X15575286Y-11549667D01*
X15594333Y-11540143D01*
X15622905Y-11540143D01*
X15641952Y-11549667D01*
X15651476Y-11568714D01*
X15651476Y-11673476D01*
X15651476Y-11568714D02*
X15661000Y-11549667D01*
X15680048Y-11540143D01*
X15708619Y-11540143D01*
X15727667Y-11549667D01*
X15737190Y-11568714D01*
X15737190Y-11673476D01*
X15832428Y-11673476D02*
X15832428Y-11540143D01*
X15832428Y-11559190D02*
X15841952Y-11549667D01*
X15861000Y-11540143D01*
X15889571Y-11540143D01*
X15908619Y-11549667D01*
X15918143Y-11568714D01*
X15918143Y-11673476D01*
X15918143Y-11568714D02*
X15927667Y-11549667D01*
X15946714Y-11540143D01*
X15975286Y-11540143D01*
X15994333Y-11549667D01*
X16003857Y-11568714D01*
X16003857Y-11673476D01*
X16394333Y-11463952D02*
X16222905Y-11721095D01*
X16651476Y-11473476D02*
X16670524Y-11473476D01*
X16689571Y-11483000D01*
X16699095Y-11492524D01*
X16708619Y-11511571D01*
X16718143Y-11549667D01*
X16718143Y-11597286D01*
X16708619Y-11635381D01*
X16699095Y-11654428D01*
X16689571Y-11663952D01*
X16670524Y-11673476D01*
X16651476Y-11673476D01*
X16632428Y-11663952D01*
X16622905Y-11654428D01*
X16613381Y-11635381D01*
X16603857Y-11597286D01*
X16603857Y-11549667D01*
X16613381Y-11511571D01*
X16622905Y-11492524D01*
X16632428Y-11483000D01*
X16651476Y-11473476D01*
X16803857Y-11654428D02*
X16813381Y-11663952D01*
X16803857Y-11673476D01*
X16794333Y-11663952D01*
X16803857Y-11654428D01*
X16803857Y-11673476D01*
X16937190Y-11473476D02*
X16956238Y-11473476D01*
X16975286Y-11483000D01*
X16984810Y-11492524D01*
X16994333Y-11511571D01*
X17003857Y-11549667D01*
X17003857Y-11597286D01*
X16994333Y-11635381D01*
X16984810Y-11654428D01*
X16975286Y-11663952D01*
X16956238Y-11673476D01*
X16937190Y-11673476D01*
X16918143Y-11663952D01*
X16908619Y-11654428D01*
X16899095Y-11635381D01*
X16889571Y-11597286D01*
X16889571Y-11549667D01*
X16899095Y-11511571D01*
X16908619Y-11492524D01*
X16918143Y-11483000D01*
X16937190Y-11473476D01*
X17070524Y-11473476D02*
X17194333Y-11473476D01*
X17127667Y-11549667D01*
X17156238Y-11549667D01*
X17175286Y-11559190D01*
X17184810Y-11568714D01*
X17194333Y-11587762D01*
X17194333Y-11635381D01*
X17184810Y-11654428D01*
X17175286Y-11663952D01*
X17156238Y-11673476D01*
X17099095Y-11673476D01*
X17080048Y-11663952D01*
X17070524Y-11654428D01*
X17289571Y-11673476D02*
X17327667Y-11673476D01*
X17346714Y-11663952D01*
X17356238Y-11654428D01*
X17375286Y-11625857D01*
X17384810Y-11587762D01*
X17384810Y-11511571D01*
X17375286Y-11492524D01*
X17365762Y-11483000D01*
X17346714Y-11473476D01*
X17308619Y-11473476D01*
X17289571Y-11483000D01*
X17280048Y-11492524D01*
X17270524Y-11511571D01*
X17270524Y-11559190D01*
X17280048Y-11578238D01*
X17289571Y-11587762D01*
X17308619Y-11597286D01*
X17346714Y-11597286D01*
X17365762Y-11587762D01*
X17375286Y-11578238D01*
X17384810Y-11559190D01*
X17556238Y-11540143D02*
X17556238Y-11673476D01*
X17508619Y-11463952D02*
X17461000Y-11606809D01*
X17584810Y-11606809D01*
X17651476Y-11473476D02*
X17651476Y-11511571D01*
X17727667Y-11473476D02*
X17727667Y-11511571D01*
X18022905Y-11749667D02*
X18013381Y-11740143D01*
X17994333Y-11711571D01*
X17984810Y-11692524D01*
X17975286Y-11663952D01*
X17965762Y-11616333D01*
X17965762Y-11578238D01*
X17975286Y-11530619D01*
X17984810Y-11502048D01*
X17994333Y-11483000D01*
X18013381Y-11454428D01*
X18022905Y-11444905D01*
X18184810Y-11540143D02*
X18184810Y-11673476D01*
X18137190Y-11463952D02*
X18089571Y-11606809D01*
X18213381Y-11606809D01*
X18441952Y-11673476D02*
X18441952Y-11473476D01*
X18527667Y-11673476D02*
X18527667Y-11568714D01*
X18518143Y-11549667D01*
X18499095Y-11540143D01*
X18470524Y-11540143D01*
X18451476Y-11549667D01*
X18441952Y-11559190D01*
X18651476Y-11673476D02*
X18632429Y-11663952D01*
X18622905Y-11654428D01*
X18613381Y-11635381D01*
X18613381Y-11578238D01*
X18622905Y-11559190D01*
X18632429Y-11549667D01*
X18651476Y-11540143D01*
X18680048Y-11540143D01*
X18699095Y-11549667D01*
X18708619Y-11559190D01*
X18718143Y-11578238D01*
X18718143Y-11635381D01*
X18708619Y-11654428D01*
X18699095Y-11663952D01*
X18680048Y-11673476D01*
X18651476Y-11673476D01*
X18832429Y-11673476D02*
X18813381Y-11663952D01*
X18803857Y-11644905D01*
X18803857Y-11473476D01*
X18984810Y-11663952D02*
X18965762Y-11673476D01*
X18927667Y-11673476D01*
X18908619Y-11663952D01*
X18899095Y-11644905D01*
X18899095Y-11568714D01*
X18908619Y-11549667D01*
X18927667Y-11540143D01*
X18965762Y-11540143D01*
X18984810Y-11549667D01*
X18994333Y-11568714D01*
X18994333Y-11587762D01*
X18899095Y-11606809D01*
X19070524Y-11663952D02*
X19089571Y-11673476D01*
X19127667Y-11673476D01*
X19146714Y-11663952D01*
X19156238Y-11644905D01*
X19156238Y-11635381D01*
X19146714Y-11616333D01*
X19127667Y-11606809D01*
X19099095Y-11606809D01*
X19080048Y-11597286D01*
X19070524Y-11578238D01*
X19070524Y-11568714D01*
X19080048Y-11549667D01*
X19099095Y-11540143D01*
X19127667Y-11540143D01*
X19146714Y-11549667D01*
X19222905Y-11749667D02*
X19232429Y-11740143D01*
X19251476Y-11711571D01*
X19261000Y-11692524D01*
X19270524Y-11663952D01*
X19280048Y-11616333D01*
X19280048Y-11578238D01*
X19270524Y-11530619D01*
X19261000Y-11502048D01*
X19251476Y-11483000D01*
X19232429Y-11454428D01*
X19222905Y-11444905D01*
M02*
