%TF.GenerationSoftware,KiCad,Pcbnew,(6.0.11)*%
%TF.CreationDate,2024-01-03T21:38:51+00:00*%
%TF.ProjectId,BBCB-SWROM-32,42424342-2d53-4575-924f-4d2d33322e6b,rev?*%
%TF.SameCoordinates,Original*%
%TF.FileFunction,Legend,Bot*%
%TF.FilePolarity,Positive*%
%FSLAX46Y46*%
G04 Gerber Fmt 4.6, Leading zero omitted, Abs format (unit mm)*
G04 Created by KiCad (PCBNEW (6.0.11)) date 2024-01-03 21:38:51*
%MOMM*%
%LPD*%
G01*
G04 APERTURE LIST*
%ADD10C,0.300000*%
%ADD11C,0.150000*%
%ADD12C,0.120000*%
G04 APERTURE END LIST*
D10*
X152803571Y-84112142D02*
X153803571Y-84469285D01*
X152803571Y-84826428D01*
X152303571Y-85683571D02*
X152303571Y-85826428D01*
X152375000Y-85969285D01*
X152446428Y-86040714D01*
X152589285Y-86112142D01*
X152875000Y-86183571D01*
X153232142Y-86183571D01*
X153517857Y-86112142D01*
X153660714Y-86040714D01*
X153732142Y-85969285D01*
X153803571Y-85826428D01*
X153803571Y-85683571D01*
X153732142Y-85540714D01*
X153660714Y-85469285D01*
X153517857Y-85397857D01*
X153232142Y-85326428D01*
X152875000Y-85326428D01*
X152589285Y-85397857D01*
X152446428Y-85469285D01*
X152375000Y-85540714D01*
X152303571Y-85683571D01*
X153660714Y-86826428D02*
X153732142Y-86897857D01*
X153803571Y-86826428D01*
X153732142Y-86755000D01*
X153660714Y-86826428D01*
X153803571Y-86826428D01*
X153803571Y-88326428D02*
X153803571Y-87469285D01*
X153803571Y-87897857D02*
X152303571Y-87897857D01*
X152517857Y-87755000D01*
X152660714Y-87612142D01*
X152732142Y-87469285D01*
D11*
%TO.C,JP1*%
X154693333Y-76927380D02*
X154693333Y-77641666D01*
X154740952Y-77784523D01*
X154836190Y-77879761D01*
X154979047Y-77927380D01*
X155074285Y-77927380D01*
X154217142Y-77927380D02*
X154217142Y-76927380D01*
X153836190Y-76927380D01*
X153740952Y-76975000D01*
X153693333Y-77022619D01*
X153645714Y-77117857D01*
X153645714Y-77260714D01*
X153693333Y-77355952D01*
X153740952Y-77403571D01*
X153836190Y-77451190D01*
X154217142Y-77451190D01*
X152693333Y-77927380D02*
X153264761Y-77927380D01*
X152979047Y-77927380D02*
X152979047Y-76927380D01*
X153074285Y-77070238D01*
X153169523Y-77165476D01*
X153264761Y-77213095D01*
X149499285Y-76152380D02*
X150070714Y-76152380D01*
X149785000Y-76152380D02*
X149785000Y-75152380D01*
X149880238Y-75295238D01*
X149975476Y-75390476D01*
X150070714Y-75438095D01*
X156868333Y-75152380D02*
X156249285Y-75152380D01*
X156582619Y-75533333D01*
X156439761Y-75533333D01*
X156344523Y-75580952D01*
X156296904Y-75628571D01*
X156249285Y-75723809D01*
X156249285Y-75961904D01*
X156296904Y-76057142D01*
X156344523Y-76104761D01*
X156439761Y-76152380D01*
X156725476Y-76152380D01*
X156820714Y-76104761D01*
X156868333Y-76057142D01*
D12*
X155885000Y-74750000D02*
X150385000Y-74750000D01*
X150385000Y-74750000D02*
X150385000Y-76700000D01*
X150385000Y-76700000D02*
X155885000Y-76700000D01*
X155885000Y-76700000D02*
X155885000Y-74750000D01*
%TD*%
M02*
